<?xml version="1.0" encoding="utf-8"?>
<!-- Generator: Adobe Illustrator 25.4.1, SVG Export Plug-In . SVG Version: 6.00 Build 0)  -->
<svg version="1.1" id="Layer_1" xmlns="http://www.w3.org/2000/svg" xmlns:xlink="http://www.w3.org/1999/xlink" x="0px" y="0px"
	 viewBox="0 0 745.9 508.5" style="enable-background:new 0 0 745.9 508.5;" xml:space="preserve">
<style type="text/css">
	.st0{clip-path:url(#SVGID_00000115498443090139579750000004079955195697929913_);}
	.st1{clip-path:url(#SVGID_00000169556156097327165930000003037236418128338600_);}
	.st2{clip-path:url(#SVGID_00000111192248303463309530000014348935351903863699_);}
	.st3{clip-path:url(#SVGID_00000098906169966135332660000000000911758705612472_);}
	.st4{clip-path:url(#SVGID_00000007400355184150701980000002800340158210625419_);}
	.st5{clip-path:url(#SVGID_00000110441779640527862690000011041726572184672399_);}
	.st6{clip-path:url(#SVGID_00000031897756902926845530000009182511957100798086_);}
	.st7{clip-path:url(#SVGID_00000114046883864777865040000009540156402087409793_);}
	.st8{fill:none;}
	.st9{enable-background:new    ;}
	.st10{fill:#004D94;stroke:#004D95;stroke-width:0.75;stroke-miterlimit:10;}
	.st11{font-family:'ArialMT';}
	.st12{font-size:15px;}
	.st13{fill:#AAACAE;stroke:#AAACAE;stroke-width:0.75;stroke-miterlimit:10;}
	.st14{clip-path:url(#SVGID_00000141439813058706864390000006611705515300178328_);}
	.st15{clip-path:url(#SVGID_00000120538759444787135060000009649105673795808957_);}
	.st16{fill:none;stroke:#2E5E82;stroke-width:3;stroke-miterlimit:10;}
	.st17{fill:none;stroke:#2E5E82;stroke-width:5;stroke-miterlimit:10;}
	
		.st18{clip-path:url(#SVGID_00000008829657703816828950000004986785532746363551_);fill:url(#SVGID_00000035530397896591531760000004549966542564772775_);stroke:#2E5E82;stroke-width:6;stroke-miterlimit:10;}
	.st19{fill:url(#SVGID_00000171697897741026136530000008234582107423842432_);}
</style>
<g>
	<defs>
		<polygon id="SVGID_1_" points="354.3,243.2 359.6,248.2 364.8,253.2 370.1,258.2 375.4,263.2 380.6,268.2 385.9,273.2 
			391.2,278.2 396.4,283.2 401.7,288.3 407,293.3 412.3,298.3 417.5,303.3 422.8,308.3 428.1,313.3 433.3,318.3 438.6,323.3 
			443.9,328.3 449.1,333.3 454.4,338.3 459.7,343.4 464.9,348.4 470.2,353.4 475.5,358.4 480.7,363.4 486,368.4 491.3,373.4 
			496.5,378.4 501.8,383.4 507.1,388.4 512.4,382.6 517.6,376.5 522.5,370.3 527.2,363.8 531.6,357.2 535.8,350.5 539.7,343.6 
			533.3,340.1 526.9,336.6 520.5,333.2 514.1,329.7 507.7,326.3 501.3,322.8 494.9,319.3 488.5,315.9 482.1,312.4 475.8,308.9 
			469.4,305.5 463,302 456.6,298.6 450.2,295.1 443.8,291.6 437.4,288.2 431,284.7 424.6,281.3 418.2,277.8 411.8,274.3 
			405.4,270.9 399.1,267.4 392.7,263.9 386.3,260.5 379.9,257 373.5,253.6 367.1,250.1 360.7,246.6 354.3,243.2 		"/>
	</defs>
	<clipPath id="SVGID_00000012443253571813682310000011970876344547383689_">
		<use xlink:href="#SVGID_1_"  style="overflow:visible;"/>
	</clipPath>
	
		<g transform="matrix(1 0 0 1 0 -1.525879e-05)" style="clip-path:url(#SVGID_00000012443253571813682310000011970876344547383689_);">
		
			<image style="overflow:visible;" width="723" height="725" xlink:href="../../../../../../../MKM/Tiers_list_pics/Asmo_Urza.JPG"  transform="matrix(0.346 0 0 0.346 338.3051 245.18)">
		</image>
	</g>
</g>
<image style="overflow:visible;enable-background:new    ;" width="95" height="211" xlink:href="C:\Users\anael\Downloads\1x\Asset 2.png"  transform="matrix(1 0 0 1 355.4666 38.1424)">
</image>
<g>
	<g>
		<defs>
			<polygon id="SVGID_00000072990583733750425780000000294271195132198071_" points="357.1,247.1 362.6,242.3 368,237.5 
				373.5,232.7 379,228 384.5,223.2 390,218.4 395.4,213.7 400.9,208.9 406.4,204.1 411.9,199.3 417.4,194.6 422.9,189.8 428.3,185 
				433.8,180.2 439.3,175.5 444.8,170.7 450.3,165.9 455.8,161.2 461.2,156.4 466.7,151.6 472.2,146.8 477.7,142.1 483.2,137.3 
				488.7,132.5 494.1,127.7 499.6,123 505.1,118.2 510.6,113.4 516.1,108.7 511.1,103.1 505.9,97.8 500.5,92.6 494.9,87.6 
				489.2,82.8 483.3,78.2 477.2,73.9 471,69.7 464.7,65.8 458.2,62.1 451.6,58.6 448.3,65.1 445.1,71.6 441.8,78.1 438.6,84.6 
				435.3,91.1 432,97.6 428.8,104.1 425.5,110.6 422.3,117.1 419,123.6 415.7,130.1 412.5,136.6 409.2,143.1 406,149.6 402.7,156.1 
				399.4,162.6 396.2,169.1 392.9,175.6 389.7,182.1 386.4,188.6 383.1,195.1 379.9,201.6 376.6,208.1 373.4,214.6 370.1,221.1 
				366.8,227.6 363.6,234.1 360.3,240.6 			"/>
		</defs>
		<clipPath id="SVGID_00000178886110080042444050000010606322931975909291_">
			<use xlink:href="#SVGID_00000072990583733750425780000000294271195132198071_"  style="overflow:visible;"/>
		</clipPath>
		<g style="clip-path:url(#SVGID_00000178886110080042444050000010606322931975909291_);">
			
				<image style="overflow:visible;enable-background:new    ;" width="711" height="710" xlink:href="../../../../../../../MKM/Tiers_list_pics/Already_uploaded/Izzet_Prowess.JPG"  transform="matrix(0.2602 0 0 0.2602 370.0966 60.8784)">
			</image>
		</g>
	</g>
</g>
<g>
	<g>
		<defs>
			<polygon id="SVGID_00000036224143609072887990000017274971740477509026_" points="355.7,246 362.5,243.4 369.3,240.9 
				376.1,238.3 382.9,235.8 389.7,233.2 396.5,230.7 403.3,228.1 410.1,225.6 416.9,223.1 423.7,220.5 430.6,218 437.4,215.4 
				444.2,212.9 451,210.3 457.8,207.8 464.6,205.2 471.4,202.7 478.2,200.1 485,197.6 491.8,195 498.6,192.5 505.4,189.9 
				512.2,187.4 519.1,184.8 525.9,182.3 532.7,179.7 539.5,177.2 546.3,174.6 553.1,172.1 550.3,165.1 547.3,158.2 544,151.3 
				540.5,144.7 536.8,138.1 532.8,131.7 528.6,125.4 524.2,119.3 519.5,113.4 514.7,107.6 509.2,112.3 503.7,117.1 498.2,121.9 
				492.7,126.7 487.3,131.4 481.8,136.2 476.3,141 470.8,145.8 465.3,150.5 459.8,155.3 454.4,160.1 448.9,164.8 443.4,169.6 
				437.9,174.4 432.4,179.2 426.9,183.9 421.5,188.7 416,193.5 410.5,198.3 405,203 399.5,207.8 394,212.6 388.6,217.3 383.1,222.1 
				377.6,226.9 372.1,231.7 366.6,236.4 361.2,241.2 			"/>
		</defs>
		<clipPath id="SVGID_00000176007507887293989150000015933533873744287159_">
			<use xlink:href="#SVGID_00000036224143609072887990000017274971740477509026_"  style="overflow:visible;"/>
		</clipPath>
		<g style="clip-path:url(#SVGID_00000176007507887293989150000015933533873744287159_);">
			
				<image style="overflow:visible;enable-background:new    ;" width="580" height="580" xlink:href="../../../../../../../MKM/Tiers_list_pics/Already_uploaded/Living_End.JPG"  transform="matrix(0.3397 0 0 0.3397 355.9066 85.2907)">
			</image>
		</g>
	</g>
</g>
<g>
	<g>
		<defs>
			<polygon id="SVGID_00000152262859933411430850000001952860206381642899_" points="354.5,245.1 361.8,244.6 369,244.1 
				376.3,243.6 383.5,243.1 390.8,242.6 398,242.1 405.3,241.6 412.5,241.1 419.8,240.6 427,240.1 434.3,239.6 441.5,239.1 
				448.8,238.6 456,238.1 463.3,237.6 470.5,237.1 477.8,236.6 485,236.1 492.3,235.6 499.5,235.1 506.8,234.6 514.1,234.1 
				521.3,233.6 528.6,233.1 535.8,232.6 543.1,232.1 550.3,231.6 557.6,231.1 564.8,230.6 564.2,223 563.2,215.4 562,207.9 
				560.5,200.5 558.8,193 556.8,185.7 554.5,178.4 551.9,171.3 545.1,173.8 538.3,176.3 531.5,178.9 524.7,181.4 517.9,184 
				511.1,186.5 504.3,189.1 497.5,191.6 490.7,194.2 483.9,196.7 477.1,199.3 470.2,201.8 463.4,204.4 456.6,206.9 449.8,209.5 
				443,212 436.2,214.6 429.4,217.1 422.6,219.7 415.8,222.2 409,224.8 402.2,227.3 395.4,229.9 388.6,232.4 381.8,235 374.9,237.5 
				368.1,240 361.3,242.6 			"/>
		</defs>
		<clipPath id="SVGID_00000098203787076879260030000013405997545281552797_">
			<use xlink:href="#SVGID_00000152262859933411430850000001952860206381642899_"  style="overflow:visible;"/>
		</clipPath>
		<g style="clip-path:url(#SVGID_00000098203787076879260030000013405997545281552797_);">
			
				<image style="overflow:visible;enable-background:new    ;" width="700" height="698" xlink:href="../../../../../../../MKM/Tiers_list_pics/Already_uploaded/hammer_time.JPG"  transform="matrix(0.3004 0 0 0.3004 354.6845 142.3083)">
			</image>
		</g>
	</g>
</g>
<g>
	<g>
		<defs>
			<polygon id="SVGID_00000058565436950063535200000005456729204211609787_" points="357.3,244.9 364.4,246.5 371.5,248 
				378.6,249.5 385.7,251.1 392.8,252.6 399.9,254.2 407,255.7 414.1,257.2 421.2,258.8 428.3,260.3 435.4,261.9 442.5,263.4 
				449.6,264.9 456.7,266.5 463.8,268 470.9,269.6 478,271.1 485.1,272.7 492.2,274.2 499.3,275.7 506.4,277.3 513.5,278.8 
				520.7,280.4 527.8,281.9 534.9,283.4 542,285 549.1,286.5 556.2,288.1 563.3,289.6 564.7,282.3 565.9,272.9 566.8,267.6 
				567.5,260.1 567.9,252.7 568.1,245.2 567.9,237.8 567.6,230.4 560.3,230.9 553.1,231.4 545.8,231.9 538.6,232.4 531.3,232.9 
				524.1,233.4 516.8,233.9 509.6,234.4 502.3,234.9 495,235.4 487.8,235.9 480.5,236.4 473.3,236.9 466,237.4 458.8,237.9 
				451.5,238.4 444.3,238.9 437,239.4 429.8,239.9 422.5,240.4 415.3,240.9 408,241.4 400.8,241.9 393.5,242.4 386.3,242.9 
				379,243.4 371.8,243.9 364.5,244.4 			"/>
		</defs>
		<clipPath id="SVGID_00000013164984955155276320000006148987085090377140_">
			<use xlink:href="#SVGID_00000058565436950063535200000005456729204211609787_"  style="overflow:visible;"/>
		</clipPath>
		<g style="clip-path:url(#SVGID_00000013164984955155276320000006148987085090377140_);">
			
				<image style="overflow:visible;enable-background:new    ;" width="644" height="643" xlink:href="../../../../../../../MKM/Tiers_list_pics/Already_uploaded/Rakdos_Midrange.JPG"  transform="matrix(0.3268 0 0 0.3268 355.2965 230.3619)">
			</image>
		</g>
	</g>
</g>
<g>
	<g>
		<defs>
			<polygon id="SVGID_00000102541934571894235290000016411074617499625886_" points="356.7,245.3 363.1,248.8 369.5,252.3 
				375.8,255.7 382.2,259.2 388.6,262.7 395,266.1 401.4,269.6 407.8,273 414.2,276.5 420.6,280 427,283.4 433.4,286.9 439.8,290.3 
				446.2,293.8 452.5,297.3 458.9,300.7 465.3,304.2 471.7,307.7 478.1,311.1 484.5,314.6 490.9,318 497.3,321.5 503.7,325 
				510.1,328.4 516.5,331.9 522.9,335.3 529.2,338.8 535.6,342.3 542,345.7 545.5,339.1 548.7,332.4 551.6,325.6 554.3,318.6 
				556.8,311.6 559,304.5 561,297.3 562.7,290 555.6,288.5 548.5,287 541.4,285.4 534.3,283.9 527.2,282.3 520.1,280.8 512.9,279.2 
				505.8,277.7 498.7,276.2 491.6,274.6 484.5,273.1 477.4,271.5 470.3,270 463.2,268.5 456.1,266.9 449,265.4 441.9,263.8 
				434.8,262.3 427.7,260.8 420.6,259.2 413.5,257.7 406.4,256.1 399.3,254.6 392.2,253 385.1,251.5 378,250 370.9,248.4 
				363.8,246.9 			"/>
		</defs>
		<clipPath id="SVGID_00000081614952667259251170000003929999075815672705_">
			<use xlink:href="#SVGID_00000102541934571894235290000016411074617499625886_"  style="overflow:visible;"/>
		</clipPath>
		<g style="clip-path:url(#SVGID_00000081614952667259251170000003929999075815672705_);">
			
				<image style="overflow:visible;enable-background:new    ;" width="844" height="844" xlink:href="../../../../../../../MKM/Tiers_list_pics/Izzet_Murktide.JPG"  transform="matrix(0.3229 0 0 0.3229 290.6915 245.3519)">
			</image>
		</g>
	</g>
</g>
<g>
	<g>
		<defs>
			<polygon id="SVGID_00000009561374780071859220000002382819246397794476_" points="356.2,243.2 361.5,248.2 366.8,253.2 
				372,258.2 377.3,263.2 382.6,268.2 387.8,273.2 393.1,278.2 398.4,283.3 403.6,288.3 408.9,293.3 414.2,298.3 419.4,303.3 
				424.7,308.3 430,313.3 435.2,318.3 440.5,323.3 445.8,328.3 451,333.3 456.3,338.4 461.6,343.4 466.8,348.4 472.1,353.4 
				477.4,358.4 482.6,363.4 487.9,368.4 493.2,373.4 498.4,378.4 503.7,383.4 509,388.4 514.3,382.6 519.5,376.5 524.4,370.3 
				529.1,363.8 533.5,357.2 537.7,350.5 541.6,343.6 535.2,340.1 528.8,336.6 522.4,333.2 516,329.7 509.6,326.3 503.2,322.8 
				496.8,319.3 490.4,315.9 484.1,312.4 477.7,309 471.3,305.5 464.9,302 458.5,298.6 452.1,295.1 445.7,291.6 439.3,288.2 
				432.9,284.7 426.5,281.3 420.1,277.8 413.7,274.3 407.4,270.9 401,267.4 394.6,264 388.2,260.5 381.8,257 375.4,253.6 369,250.1 
				362.6,246.6 			"/>
		</defs>
		<clipPath id="SVGID_00000083064692849461961230000009336465596162533811_">
			<use xlink:href="#SVGID_00000009561374780071859220000002382819246397794476_"  style="overflow:visible;"/>
		</clipPath>
	</g>
</g>
<g>
	<g>
		<defs>
			<polygon id="SVGID_00000147922877670516331510000014811095640850077091_" points="355.7,243.7 359.8,249.7 363.9,255.7 
				368,261.7 372.2,267.6 376.3,273.6 380.4,279.6 384.5,285.6 388.6,291.6 392.8,297.6 396.9,303.6 401,309.5 405.1,315.5 
				409.3,321.5 413.4,327.5 417.5,333.5 421.6,339.5 425.8,345.5 429.9,351.5 434,357.4 438.1,363.4 442.3,369.4 446.4,375.4 
				450.5,381.4 454.6,387.4 458.7,393.4 462.9,399.3 467,405.3 471.1,411.3 475.2,417.3 481.2,413.1 486.9,408.6 492.6,404 
				498,399.2 503.3,394.2 508.4,389 503.1,384 497.9,378.9 492.6,373.9 487.3,368.9 482.1,363.9 476.8,358.9 471.5,353.9 
				466.3,348.9 461,343.9 455.7,338.9 450.5,333.9 445.2,328.9 439.9,323.8 434.7,318.8 429.4,313.8 424.1,308.8 418.9,303.8 
				413.6,298.8 408.3,293.8 403.1,288.8 397.8,283.8 392.5,278.8 387.3,273.8 382,268.7 376.7,263.7 371.5,258.7 366.2,253.7 
				360.9,248.7 			"/>
		</defs>
		<clipPath id="SVGID_00000039853845015337668730000006998908407446405040_">
			<use xlink:href="#SVGID_00000147922877670516331510000014811095640850077091_"  style="overflow:visible;"/>
		</clipPath>
		
			<g transform="matrix(1 0 0 1 -1.525879e-05 0)" style="clip-path:url(#SVGID_00000039853845015337668730000006998908407446405040_);">
			
				<image style="overflow:visible;enable-background:new    ;" width="801" height="804" xlink:href="../../../../../../../MKM/Tiers_list_pics/Already_uploaded/Yawgmoth.JPG"  transform="matrix(0.3124 0 0 0.3124 258.1868 243.7121)">
			</image>
		</g>
	</g>
</g>
<g>
	<g>
		<defs>
			<polygon id="SVGID_00000084531179944803056320000013693282873468072844_" points="355.7,243.7 358.5,250.4 361.4,257 
				364.3,263.7 367.2,270.4 370.1,277.1 373,283.7 375.9,290.4 378.8,297.1 381.6,303.7 384.5,310.4 387.4,317.1 390.3,323.8 
				393.2,330.4 396.1,337.1 399,343.8 401.8,350.4 404.7,357.1 407.6,363.8 410.5,370.5 413.4,377.1 416.3,383.8 419.2,390.5 
				422.1,397.1 424.9,403.8 427.8,410.5 430.7,417.1 433.6,423.8 436.5,430.5 439.4,437.2 446.8,433.8 454.2,430.1 461.4,426.1 
				468.4,421.8 475.2,417.3 471.1,411.3 467,405.3 462.9,399.3 458.7,393.4 454.6,387.4 450.5,381.4 446.4,375.4 442.3,369.4 
				438.1,363.4 434,357.4 429.9,351.5 425.8,345.5 421.6,339.5 417.5,333.5 413.4,327.5 409.3,321.5 405.1,315.5 401,309.5 
				396.9,303.6 392.8,297.6 388.6,291.6 384.5,285.6 380.4,279.6 376.3,273.6 372.2,267.6 368,261.7 363.9,255.7 359.8,249.7 			"/>
		</defs>
		<clipPath id="SVGID_00000079473323738558001520000005985152785312651427_">
			<use xlink:href="#SVGID_00000084531179944803056320000013693282873468072844_"  style="overflow:visible;"/>
		</clipPath>
		
			<g transform="matrix(1 0 0 1 1.525879e-05 0)" style="clip-path:url(#SVGID_00000079473323738558001520000005985152785312651427_);">
			
				<image style="overflow:visible;enable-background:new    ;" width="653" height="656" xlink:href="../../../../../../../MKM/Tiers_list_pics/Already_uploaded/Stoneblade.JPG"  transform="matrix(0.3544 0 0 0.3544 292.5344 243.7121)">
			</image>
		</g>
	</g>
</g>
<g>
	<g>
		<defs>
			<polygon id="SVGID_00000022551473161246375660000009798162872465835427_" points="357.1,243.6 358.8,250.7 360.6,257.7 
				362.4,264.8 364.1,271.8 365.9,278.9 367.7,286 369.4,293 371.2,300.1 373,307.1 374.7,314.2 376.5,321.2 378.2,328.3 380,335.3 
				381.8,342.4 383.5,349.4 385.3,356.5 387.1,363.5 388.8,370.6 390.6,377.6 392.3,384.7 394.1,391.7 395.9,398.8 397.6,405.8 
				399.4,412.9 401.2,419.9 402.9,427 404.7,434 406.5,441.1 408.2,448.1 416.5,445.9 424.7,443.3 432.8,440.4 440.8,437.1 
				437.9,430.4 435,423.8 432.1,417.1 429.3,410.4 426.4,403.7 423.5,397.1 420.6,390.4 417.7,383.7 414.8,377.1 411.9,370.4 
				409,363.7 406.2,357 403.3,350.4 400.4,343.7 397.5,337 394.6,330.4 391.7,323.7 388.8,317 385.9,310.4 383.1,303.7 380.2,297 
				377.3,290.3 374.4,283.7 371.5,277 368.6,270.3 365.7,263.7 362.9,257 360,250.3 			"/>
		</defs>
		<clipPath id="SVGID_00000059290298160679803400000012400979223173732533_">
			<use xlink:href="#SVGID_00000022551473161246375660000009798162872465835427_"  style="overflow:visible;"/>
		</clipPath>
		<g style="clip-path:url(#SVGID_00000059290298160679803400000012400979223173732533_);">
			
				<image style="overflow:visible;enable-background:new    ;" width="723" height="721" xlink:href="../../../../../../../MKM/Tiers_list_pics/WURG_Footfalls.JPG"  transform="matrix(0.3556 0 0 0.3556 212.3416 244.6504)">
			</image>
		</g>
	</g>
</g>
<polyline class="st8" points="445.6,220.2 445,213 444.4,205.7 "/>
<g>
	<g>
		<text transform="matrix(1 0 0 1 534.6843 122.542)" class="st9"><tspan x="0" y="0" class="st10 st11 st12">Blue Living End </tspan><tspan x="108.4" y="0" class="st13 st11 st12">(5.7%)</tspan></text>
		<text transform="matrix(1 0 0 1 564.8708 194.7901)" class="st9"><tspan x="0" y="0" class="st10 st11 st12">Hammer Time </tspan><tspan x="99.2" y="0" class="st13 st11 st12">(4.6%)</tspan></text>
		<text transform="matrix(1 0 0 1 570.6933 254.2504)" class="st9"><tspan x="0" y="0" class="st10 st11 st12">Rakdos Midrange </tspan><tspan x="121.7" y="0" class="st13 st11 st12">(4.5%)</tspan></text>
		<text transform="matrix(1 0 0 1 560.5204 316.8599)" class="st9"><tspan x="0" y="0" class="st10 st11 st12">Izzet Murktide </tspan><tspan x="97.5" y="0" class="st13 st11 st12">(4.5%)</tspan></text>
		<text transform="matrix(1 0 0 1 537.0056 367.5409)" class="st9"><tspan x="0" y="0" class="st10 st11 st12">Asmo Urza </tspan><tspan x="78.3" y="0" class="st13 st11 st12">(4.2%)</tspan></text>
		<text transform="matrix(1 0 0 1 467.9504 442.0819)" class="st9"><tspan x="0" y="0" class="st10 st11 st12">Stoneblade </tspan><tspan x="80.1" y="0" class="st13 st11 st12">(3.1%)</tspan></text>
		<text transform="matrix(1 0 0 1 427.8789 461.6754)" class="st9"><tspan x="0" y="0" class="st10 st11 st12">Temur Footfalls </tspan><tspan x="108.4" y="0" class="st13 st11 st12">(2.6%)</tspan></text>
		<text transform="matrix(1 0 0 1 386.933 477.8864)" class="st9"><tspan x="0" y="0" class="st10 st11 st12">Humans </tspan><tspan x="60" y="0" class="st13 st11 st12">(2.6%)</tspan></text>
		<text transform="matrix(1 0 0 1 311.4365 497.2657)" class="st9"><tspan x="0" y="0" class="st10 st11 st12">WURG Footfalls </tspan><tspan x="112.5" y="0" class="st13 st11 st12">(2.4%)</tspan></text>
		<text transform="matrix(1 0 0 1 11.4274 234.448)" class="st9"><tspan x="0" y="0" class="st10 st11 st12">Other </tspan><tspan x="41.7" y="0" class="st13 st11 st12">(each &lt;2%)</tspan></text>
	</g>
</g>
<g>
	<g>
		<defs>
			<polygon id="SVGID_00000039814432918394902510000009990921341650352278_" points="354.7,244 354.2,251.3 353.7,258.5 
				353.2,265.8 352.7,273 352.2,280.3 351.7,287.5 351.2,294.8 350.7,302 350.2,309.3 349.7,316.5 349.2,323.8 348.7,331 
				348.2,338.3 347.7,345.5 347.2,352.8 346.7,360 346.2,367.3 345.7,374.5 345.2,381.8 344.7,389.1 344.2,396.3 343.7,403.6 
				343.2,410.8 342.7,418.1 342.2,425.3 341.7,432.6 341.2,439.8 340.7,447.1 340.2,454.3 348.1,454.7 356.1,454.8 364,454.6 
				371.9,454.1 371.4,446.9 370.8,439.6 370.2,432.4 369.6,425.1 369,417.9 368.4,410.6 367.8,403.4 367.2,396.2 366.6,388.9 
				366,381.7 365.4,374.4 364.8,367.2 364.2,359.9 363.6,352.7 363.1,345.4 362.5,338.2 361.9,331 361.3,323.7 360.7,316.5 
				360.1,309.2 359.5,302 358.9,294.7 358.3,287.5 357.7,280.2 357.1,273 356.5,265.8 355.9,258.5 355.3,251.3 			"/>
		</defs>
		<clipPath id="SVGID_00000158734297420304995060000007910311617536934037_">
			<use xlink:href="#SVGID_00000039814432918394902510000009990921341650352278_"  style="overflow:visible;"/>
		</clipPath>
		<g style="clip-path:url(#SVGID_00000158734297420304995060000007910311617536934037_);">
			
				<image style="overflow:visible;enable-background:new    ;" width="723" height="721" xlink:href="../../../../../../../MKM/Tiers_list_pics/WURG_Footfalls.JPG"  transform="matrix(0.3556 0 0 0.3556 163.4715 256.1828)">
			</image>
		</g>
	</g>
</g>
<g>
	<g>
		<defs>
			<polygon id="SVGID_00000057827053377412149910000017518086593750983311_" points="356.2,243.8 356.8,251.1 357.4,258.3 
				358,265.6 358.6,272.8 359.2,280.1 359.8,287.3 360.4,294.6 361,301.8 361.5,309 362.1,316.3 362.7,323.5 363.3,330.8 363.9,338 
				364.5,345.3 365.1,352.5 365.7,359.8 366.3,367 366.9,374.2 367.5,381.5 368.1,388.7 368.7,396 369.3,403.2 369.9,410.5 
				370.4,417.7 371,425 371.6,432.2 372.2,439.4 372.8,446.7 373.4,453.9 382,453.1 390.5,451.8 399,450.3 407.3,448.3 405.6,441.3 
				403.8,434.2 402.1,427.2 400.3,420.1 398.5,413.1 396.8,406 395,399 393.2,391.9 391.5,384.9 389.7,377.8 388,370.8 386.2,363.7 
				384.4,356.7 382.7,349.6 380.9,342.6 379.1,335.5 377.4,328.5 375.6,321.4 373.8,314.4 372.1,307.3 370.3,300.3 368.6,293.2 
				366.8,286.2 365,279.1 363.3,272 361.5,265 359.7,257.9 358,250.9 			"/>
		</defs>
		<clipPath id="SVGID_00000096040036757793840830000012236181453642711973_">
			<use xlink:href="#SVGID_00000057827053377412149910000017518086593750983311_"  style="overflow:visible;"/>
		</clipPath>
		
			<g transform="matrix(1 0 0 1 0 -3.051758e-05)" style="clip-path:url(#SVGID_00000096040036757793840830000012236181453642711973_);">
			
				<image style="overflow:visible;enable-background:new    ;" width="682" height="683" xlink:href="../../../../../../../MKM/Tiers_list_pics/Already_uploaded/Humans.JPG"  transform="matrix(0.358 0 0 0.358 243.8291 247.8554)">
			</image>
		</g>
	</g>
</g>
<line class="st16" x1="353.5" y1="216.4" x2="354.3" y2="36.7"/>
<line class="st16" x1="450.4" y1="60.1" x2="355.4" y2="246"/>
<line class="st16" x1="514.7" y1="107.6" x2="355.4" y2="246"/>
<line class="st16" x1="551.9" y1="171.3" x2="355.4" y2="246"/>
<line class="st16" x1="562.7" y1="230.7" x2="355.4" y2="246"/>
<line class="st16" x1="559.1" y1="289.6" x2="357.3" y2="244.9"/>
<line class="st16" x1="539.5" y1="342.5" x2="354.4" y2="243.7"/>
<line class="st16" x1="509" y1="388.4" x2="356.5" y2="245.3"/>
<line class="st16" x1="475.2" y1="417.3" x2="355.4" y2="246"/>
<line class="st16" x1="440.8" y1="437.1" x2="355.4" y2="246"/>
<line class="st16" x1="408.2" y1="448.1" x2="355.7" y2="246.7"/>
<line class="st16" x1="373.4" y1="453.9" x2="355.4" y2="246"/>
<line class="st16" x1="339.2" y1="448.7" x2="351.5" y2="273.8"/>
<circle class="st17" cx="355.4" cy="246" r="209.4"/>
<g>
	<defs>
		<polygon id="SVGID_00000114793101831224362030000005061211914803000202_" points="354.5,242.4 354.5,235.1 354.5,227.9 
			354.5,220.6 354.5,213.3 354.5,206.1 354.5,198.8 354.5,191.5 354.5,184.3 354.5,177 354.5,169.7 354.5,162.5 354.5,155.2 
			354.5,147.9 354.5,140.6 354.5,133.4 354.5,126.1 354.5,118.8 354.5,111.6 354.5,104.3 354.5,97 354.5,89.8 354.5,82.5 
			354.5,75.2 354.5,68 354.5,60.7 354.5,53.4 354.5,46.2 354.5,38.9 354.5,31.6 347.3,31.7 340.2,32.1 333,32.7 325.8,33.6 
			318.7,34.7 311.7,36 304.6,37.6 297.7,39.4 290.8,41.5 284,43.8 277.2,46.3 270.6,49.1 264,52 257.6,55.2 251.3,58.7 245,62.3 
			239,66.1 233,70.2 227.2,74.4 221.5,78.9 216,83.5 210.7,88.3 205.5,93.3 200.5,98.5 195.7,103.8 191.1,109.3 186.6,115 
			182.4,120.8 178.3,126.8 174.5,132.8 170.8,139 167.4,145.4 164.2,151.8 161.2,158.4 158.5,165 155.9,171.8 153.6,178.6 
			151.6,185.5 149.8,192.4 148.2,199.4 146.8,206.5 145.7,213.6 144.9,220.8 144.2,227.9 143.9,235.1 143.7,242.3 143.9,249.5 
			144.2,256.7 144.8,263.9 145.7,271 146.8,278.1 148.1,285.2 149.7,292.2 151.5,299.2 153.6,306.1 155.9,312.9 158.4,319.6 
			161.2,326.3 164.1,332.8 167.3,339.3 170.7,345.6 174.4,351.8 178.2,357.9 182.3,363.9 186.5,369.7 190.9,375.3 195.6,380.9 
			200.4,386.2 205.4,391.4 210.6,396.4 215.9,401.2 221.4,405.8 227.1,410.3 232.9,414.5 238.8,418.6 244.9,422.4 251.1,426.1 
			257.4,429.5 263.9,432.7 270.4,435.7 277.1,438.5 283.8,441 290.6,443.3 297.5,445.3 304.5,447.2 311.5,448.8 318.6,450.1 
			325.7,451.2 332.8,452.1 340,452.7 340.5,445.5 341,438.2 341.5,431 342,423.7 342.5,416.4 343,409.2 343.5,401.9 344,394.7 
			344.5,387.4 345,380.2 345.5,372.9 346,365.7 346.5,358.4 347,351.2 347.5,343.9 348,336.7 348.5,329.4 349,322.2 349.5,314.9 
			350,307.7 350.5,300.4 351,293.2 351.5,285.9 352,278.7 352.5,271.4 353,264.2 353.5,256.9 354,249.7 354.5,242.4 		"/>
	</defs>
	<clipPath id="SVGID_00000066517397794445003780000000955096007573481884_">
		<use xlink:href="#SVGID_00000114793101831224362030000005061211914803000202_"  style="overflow:visible;"/>
	</clipPath>
	
		<radialGradient id="SVGID_00000055687878714079950380000018390717431820081557_" cx="354.5312" cy="248.1562" r="210.545" gradientUnits="userSpaceOnUse">
		<stop  offset="0" style="stop-color:#FFFFFF"/>
		<stop  offset="0.9804" style="stop-color:#2D5E80"/>
	</radialGradient>
	
		<circle style="clip-path:url(#SVGID_00000066517397794445003780000000955096007573481884_);fill:url(#SVGID_00000055687878714079950380000018390717431820081557_);stroke:#2E5E82;stroke-width:6;stroke-miterlimit:10;" cx="354.5" cy="248.2" r="210.5"/>
</g>
<line class="st16" x1="355.4" y1="36.6" x2="355.7" y2="249.1"/>
<line class="st16" x1="340" y1="452.7" x2="355.4" y2="250.5"/>
<radialGradient id="SVGID_00000107574147601420758450000017806294993465129352_" cx="356.0812" cy="368.3727" r="29.475" gradientTransform="matrix(1 0 0 1 0 -122)" gradientUnits="userSpaceOnUse">
	<stop  offset="0" style="stop-color:#FFFFFF"/>
	<stop  offset="0.127" style="stop-color:#FBFCFC"/>
	<stop  offset="0.2652" style="stop-color:#EDF2F5"/>
	<stop  offset="0.4086" style="stop-color:#D8E1E8"/>
	<stop  offset="0.5558" style="stop-color:#B9C9D5"/>
	<stop  offset="0.7058" style="stop-color:#92ABBE"/>
	<stop  offset="0.8559" style="stop-color:#6387A2"/>
	<stop  offset="1" style="stop-color:#2E5E82"/>
</radialGradient>
<circle style="fill:url(#SVGID_00000107574147601420758450000017806294993465129352_);" cx="356.1" cy="246.4" r="29.5"/>
<text transform="matrix(1 0 0 1 351.5313 23.8263)" class="st9"><tspan x="0" y="0" class="st10 st11 st12">Amulet Titan </tspan><tspan x="88.4" y="0" class="st13 st11 st12">(7.4%)</tspan></text>
<text transform="matrix(1 0 0 1 468.6404 63.5116)" class="st9"><tspan x="0" y="0" class="st10 st11 st12">Izzet Prowess </tspan><tspan x="97.5" y="0" class="st13 st11 st12">(6.2%)</tspan></text>
<text transform="matrix(1 0 0 1 501.7026 411.2911)" class="st9"><tspan x="0" y="0" class="st10 st11 st12">Yawgmoth </tspan><tspan x="75" y="0" class="st13 st11 st12">(3.3%)</tspan></text>
</svg>
