<?xml version="1.0" encoding="utf-8"?>
<!-- Generator: Adobe Illustrator 25.2.1, SVG Export Plug-In . SVG Version: 6.00 Build 0)  -->
<svg version="1.1" id="Calque_1" xmlns="http://www.w3.org/2000/svg" xmlns:xlink="http://www.w3.org/1999/xlink" x="0px" y="0px"
	 viewBox="0 0 720 720" style="enable-background:new 0 0 720 720;" xml:space="preserve">
<style type="text/css">
	.st0{fill:#F8766D;stroke:#FFFFFF;stroke-width:2.13;stroke-linecap:round;stroke-linejoin:round;stroke-miterlimit:10;}
	.st1{fill:#E88526;stroke:#FFFFFF;stroke-width:2.13;stroke-linecap:round;stroke-linejoin:round;stroke-miterlimit:10;}
	.st2{fill:#D39200;stroke:#FFFFFF;stroke-width:2.13;stroke-linecap:round;stroke-linejoin:round;stroke-miterlimit:10;}
	.st3{fill:#B79F00;stroke:#FFFFFF;stroke-width:2.13;stroke-linecap:round;stroke-linejoin:round;stroke-miterlimit:10;}
	.st4{fill:#93AA00;stroke:#FFFFFF;stroke-width:2.13;stroke-linecap:round;stroke-linejoin:round;stroke-miterlimit:10;}
	.st5{fill:#5EB300;stroke:#FFFFFF;stroke-width:2.13;stroke-linecap:round;stroke-linejoin:round;stroke-miterlimit:10;}
	.st6{fill:#00BA38;stroke:#FFFFFF;stroke-width:2.13;stroke-linecap:round;stroke-linejoin:round;stroke-miterlimit:10;}
	.st7{fill:#00BF74;stroke:#FFFFFF;stroke-width:2.13;stroke-linecap:round;stroke-linejoin:round;stroke-miterlimit:10;}
	.st8{fill:#00C19F;stroke:#FFFFFF;stroke-width:2.13;stroke-linecap:round;stroke-linejoin:round;stroke-miterlimit:10;}
	.st9{fill:#00B9E3;stroke:#FFFFFF;stroke-width:2.13;stroke-linecap:round;stroke-linejoin:round;stroke-miterlimit:10;}
	.st10{fill:#00ADFA;stroke:#FFFFFF;stroke-width:2.13;stroke-linecap:round;stroke-linejoin:round;stroke-miterlimit:10;}
	.st11{fill:#00BFC4;stroke:#FFFFFF;stroke-width:2.13;stroke-linecap:round;stroke-linejoin:round;stroke-miterlimit:10;}
	.st12{fill:#AE87FF;stroke:#FFFFFF;stroke-width:2.13;stroke-linecap:round;stroke-linejoin:round;stroke-miterlimit:10;}
	.st13{fill:#619CFF;stroke:#FFFFFF;stroke-width:2.13;stroke-linecap:round;stroke-linejoin:round;stroke-miterlimit:10;}
	.st14{fill:#DB72FB;stroke:#FFFFFF;stroke-width:2.13;stroke-linecap:round;stroke-linejoin:round;stroke-miterlimit:10;}
	.st15{fill:#F564E3;stroke:#FFFFFF;stroke-width:2.13;stroke-linecap:round;stroke-linejoin:round;stroke-miterlimit:10;}
	.st16{fill:#FF61C3;stroke:#FFFFFF;stroke-width:2.13;stroke-linecap:round;stroke-linejoin:round;stroke-miterlimit:10;}
	.st17{fill:url(#SVGID_7_);stroke:url(#SVGID_8_);stroke-linecap:round;stroke-linejoin:round;stroke-miterlimit:10;}
	.st18{clip-path:url(#SVGID_10_);}
	.st19{fill:#FF61C3;stroke:#FFFFFF;stroke-width:2.13;stroke-linecap:square;stroke-miterlimit:10;}
	.st20{fill:none;}
	.st21{enable-background:new    ;}
	.st22{fill:#575756;}
	.st23{font-family:'CenturyGothic';}
	.st24{font-size:15px;}
	.st25{letter-spacing:1;}
	.st26{letter-spacing:4;}
	.st27{font-size:18px;}
	.st28{letter-spacing:3;}
	.st29{fill:#FFFFFF;stroke:#1D1D1B;stroke-width:0.5;stroke-miterlimit:10;}
	.st30{font-family:'Arial-BoldMT';}
	.st31{font-size:17px;}
</style>
<g>
	<defs>
		<rect id="SVGID_1_" y="0" width="720" height="720"/>
	</defs>
	<clipPath id="SVGID_2_">
		<use xlink:href="#SVGID_1_"  style="overflow:visible;"/>
	</clipPath>
</g>
<g>
	<defs>
		<rect id="SVGID_3_" y="55.8" width="720" height="608.5"/>
	</defs>
	<clipPath id="SVGID_4_">
		<use xlink:href="#SVGID_3_"  style="overflow:visible;"/>
	</clipPath>
</g>
<g>
	<defs>
		<rect id="SVGID_5_" y="0" width="720" height="720"/>
	</defs>
	<clipPath id="SVGID_6_">
		<use xlink:href="#SVGID_5_"  style="overflow:visible;"/>
	</clipPath>
</g>
<g>
	<g>
		<polygon class="st0" points="271.7,392.5 277.2,387.8 282.8,383 288.3,378.3 293.8,373.6 299.3,368.9 304.8,364.1 310.3,359.4 
			315.9,354.6 321.4,349.9 326.9,345.2 332.4,340.5 337.9,335.7 343.4,331 349,326.2 354.5,321.5 360,316.8 365.5,312 371,307.3 
			376.5,302.6 382,297.9 387.6,293.1 393.1,288.4 398.6,283.6 404.1,278.9 409.6,274.2 415.1,269.5 420.7,264.7 426.2,260 
			431.7,255.2 426.9,249.8 421.9,244.6 416.7,239.5 411.3,234.6 405.8,229.8 400.1,225.3 394.3,221 388.3,216.9 382.2,213 
			375.9,209.3 369.5,205.8 363,202.5 356.4,199.5 349.7,196.7 342.9,194.1 336.1,191.8 329.1,189.7 322.1,187.8 315,186.2 
			307.9,184.8 300.7,183.7 293.5,182.8 286.2,182.2 279,181.8 271.7,181.7 271.7,189 271.7,196.3 271.7,203.5 271.7,210.8 
			271.7,218.1 271.7,225.3 271.7,232.6 271.7,239.9 271.7,247.1 271.7,254.4 271.7,261.7 271.7,269 271.7,276.2 271.7,283.5 
			271.7,290.8 271.7,298 271.7,305.3 271.7,312.6 271.7,319.8 271.7,327.1 271.7,334.4 271.7,341.6 271.7,348.9 271.7,356.2 
			271.7,363.4 271.7,370.7 271.7,378 271.7,385.2 271.7,392.5 		"/>
		<polygon class="st1" points="271.7,392.5 278.9,391.2 286,389.8 293.1,388.5 300.3,387.1 307.4,385.8 314.6,384.4 321.7,383 
			328.9,381.7 336,380.4 343.1,379 350.3,377.6 357.4,376.3 364.6,374.9 371.7,373.6 378.8,372.2 386,370.9 393.1,369.5 
			400.3,368.2 407.4,366.8 414.5,365.5 421.7,364.1 428.8,362.8 436,361.4 443.1,360.1 450.3,358.7 457.4,357.4 464.5,356 
			471.7,354.7 478.8,353.3 477.3,346.1 475.6,339 473.6,331.9 471.4,324.9 468.9,318 466.2,311.2 463.3,304.5 460.1,297.9 
			456.7,291.4 453,285 449.2,278.8 445.1,272.7 440.9,266.7 436.4,260.9 431.7,255.2 426.2,260 420.7,264.7 415.1,269.5 
			409.6,274.2 404.1,278.9 398.6,283.6 393.1,288.4 387.6,293.1 382,297.9 376.5,302.6 371,307.3 365.5,312 360,316.8 354.5,321.5 
			349,326.2 343.4,331 337.9,335.7 332.4,340.5 326.9,345.2 321.4,349.9 315.9,354.6 310.3,359.4 304.8,364.1 299.3,368.9 
			293.8,373.6 288.3,378.3 282.8,383 277.2,387.8 271.7,392.5 		"/>
		<polygon class="st2" points="271.7,392.5 278.8,394 286,395.5 293.1,396.9 300.2,398.4 307.3,399.8 314.4,401.3 321.5,402.8 
			328.7,404.2 335.8,405.7 342.9,407.2 350,408.6 357.1,410.1 364.3,411.5 371.4,413 378.5,414.5 385.6,416 392.8,417.4 
			399.9,418.9 407,420.3 414.1,421.8 421.2,423.3 428.4,424.7 435.5,426.2 442.6,427.7 449.7,429.1 456.8,430.6 464,432 
			471.1,433.5 478.2,435 479.6,427.6 480.7,420.2 481.5,412.8 482.1,405.4 482.4,397.9 482.5,390.4 482.3,383 481.8,375.5 
			481.1,368.1 480.1,360.7 478.8,353.3 471.7,354.7 464.5,356 457.4,357.4 450.3,358.7 443.1,360.1 436,361.4 428.8,362.8 
			421.7,364.1 414.5,365.5 407.4,366.8 400.3,368.2 393.1,369.5 386,370.9 378.8,372.2 371.7,373.6 364.6,374.9 357.4,376.3 
			350.3,377.6 343.1,379 336,380.4 328.9,381.7 321.7,383 314.6,384.4 307.4,385.8 300.3,387.1 293.1,388.5 286,389.8 278.9,391.2 
			271.7,392.5 		"/>
		<polygon class="st3" points="271.7,392.5 278.1,396.1 284.4,399.6 290.7,403.2 297.1,406.7 303.4,410.3 309.8,413.9 316.1,417.4 
			322.4,421 328.8,424.5 335.1,428.1 341.5,431.6 347.8,435.2 354.1,438.7 360.5,442.3 366.8,445.8 373.2,449.4 379.5,453 
			385.8,456.5 392.2,460.1 398.5,463.6 404.9,467.2 411.2,470.7 417.5,474.3 423.9,477.8 430.2,481.4 436.6,485 442.9,488.5 
			449.2,492.1 455.6,495.6 459,489.3 462.2,482.8 465.2,476.2 467.9,469.5 470.5,462.8 472.8,455.9 474.8,449 476.6,442 478.2,435 
			471.1,433.5 464,432 456.8,430.6 449.7,429.1 442.6,427.7 435.5,426.2 428.4,424.7 421.2,423.3 414.1,421.8 407,420.3 
			399.9,418.9 392.8,417.4 385.6,416 378.5,414.5 371.4,413 364.3,411.5 357.1,410.1 350,408.6 342.9,407.2 335.8,405.7 
			328.7,404.2 321.5,402.8 314.4,401.3 307.3,399.8 300.2,398.4 293.1,396.9 286,395.5 278.8,394 271.7,392.5 		"/>
		<polygon class="st4" points="271.7,392.5 276.7,397.8 281.7,403.1 286.7,408.4 291.7,413.6 296.7,418.9 301.7,424.2 306.7,429.5 
			311.7,434.8 316.7,440 321.7,445.3 326.7,450.6 331.7,455.9 336.7,461.1 341.7,466.4 346.7,471.7 351.7,477 356.7,482.3 
			361.6,487.5 366.6,492.8 371.6,498.1 376.6,503.4 381.6,508.7 386.6,513.9 391.6,519.2 396.6,524.5 401.6,529.8 406.6,535.1 
			411.6,540.3 416.6,545.6 422.3,540 427.7,534.3 433,528.3 438,522.1 442.8,515.7 447.3,509.2 451.6,502.5 455.6,495.6 
			449.2,492.1 442.9,488.5 436.6,485 430.2,481.4 423.9,477.8 417.5,474.3 411.2,470.7 404.9,467.2 398.5,463.6 392.2,460.1 
			385.8,456.5 379.5,453 373.2,449.4 366.8,445.8 360.5,442.3 354.1,438.7 347.8,435.2 341.5,431.6 335.1,428.1 328.8,424.5 
			322.4,421 316.1,417.4 309.8,413.9 303.4,410.3 297.1,406.7 290.7,403.2 284.4,399.6 278.1,396.1 271.7,392.5 		"/>
		<polygon class="st5" points="271.7,392.5 275.2,398.9 278.8,405.2 282.3,411.6 285.8,417.9 289.3,424.3 292.9,430.7 296.4,437 
			299.9,443.4 303.4,449.7 307,456.1 310.5,462.4 314,468.8 317.5,475.2 321.1,481.5 324.6,487.9 328.1,494.2 331.6,500.6 
			335.2,506.9 338.7,513.3 342.2,519.7 345.7,526 349.3,532.4 352.8,538.7 356.3,545.1 359.8,551.4 363.4,557.8 366.9,564.2 
			370.4,570.5 373.9,576.9 380.5,573.1 386.9,569 393.2,564.8 399.3,560.3 405.2,555.6 411,550.7 416.6,545.6 411.6,540.3 
			406.6,535.1 401.6,529.8 396.6,524.5 391.6,519.2 386.6,513.9 381.6,508.7 376.6,503.4 371.6,498.1 366.6,492.8 361.6,487.5 
			356.7,482.3 351.7,477 346.7,471.7 341.7,466.4 336.7,461.1 331.7,455.9 326.7,450.6 321.7,445.3 316.7,440 311.7,434.8 
			306.7,429.5 301.7,424.2 296.7,418.9 291.7,413.6 286.7,408.4 281.7,403.1 276.7,397.8 271.7,392.5 		"/>
		<polygon class="st6" points="271.7,392.5 273.8,399.5 275.8,406.5 277.9,413.4 279.9,420.4 282,427.4 284,434.4 286.1,441.3 
			288.1,448.3 290.2,455.3 292.2,462.2 294.3,469.2 296.3,476.2 298.4,483.2 300.4,490.1 302.5,497.1 304.5,504.1 306.6,511.1 
			308.6,518 310.7,525 312.8,532 314.8,539 316.9,545.9 318.9,552.9 321,559.9 323,566.8 325.1,573.8 327.1,580.8 329.2,587.8 
			331.2,594.7 338.6,592.4 345.9,589.8 353.1,587 360.1,583.9 367.1,580.5 373.9,576.9 370.4,570.5 366.9,564.2 363.4,557.8 
			359.8,551.4 356.3,545.1 352.8,538.7 349.3,532.4 345.7,526 342.2,519.7 338.7,513.3 335.2,506.9 331.6,500.6 328.1,494.2 
			324.6,487.9 321.1,481.5 317.5,475.2 314,468.8 310.5,462.4 307,456.1 303.4,449.7 299.9,443.4 296.4,437 292.9,430.7 
			289.3,424.3 285.8,417.9 282.3,411.6 278.8,405.2 275.2,398.9 271.7,392.5 		"/>
		<polygon class="st7" points="271.7,392.5 272.3,399.8 273,407 273.6,414.2 274.2,421.5 274.8,428.7 275.4,436 276,443.2 
			276.6,450.5 277.3,457.7 277.9,464.9 278.5,472.2 279.1,479.4 279.7,486.7 280.4,493.9 281,501.2 281.6,508.4 282.2,515.6 
			282.8,522.9 283.4,530.1 284,537.4 284.7,544.6 285.3,551.9 285.9,559.1 286.5,566.3 287.1,573.6 287.7,580.8 288.4,588.1 
			289,595.3 289.6,602.5 298,601.7 306.4,600.4 314.8,598.9 323,597 331.2,594.7 329.2,587.8 327.1,580.8 325.1,573.8 323,566.8 
			321,559.9 318.9,552.9 316.9,545.9 314.8,539 312.8,532 310.7,525 308.6,518 306.6,511.1 304.5,504.1 302.5,497.1 300.4,490.1 
			298.4,483.2 296.3,476.2 294.3,469.2 292.2,462.2 290.2,455.3 288.1,448.3 286.1,441.3 284,434.4 282,427.4 279.9,420.4 
			277.9,413.4 275.8,406.5 273.8,399.5 271.7,392.5 		"/>
		<polygon class="st8" points="271.7,392.5 271,399.8 270.2,407 269.5,414.2 268.7,421.4 268,428.7 267.2,435.9 266.4,443.1 
			265.7,450.4 264.9,457.6 264.2,464.8 263.4,472 262.7,479.3 261.9,486.5 261.2,493.7 260.4,501 259.7,508.2 258.9,515.4 
			258.2,522.7 257.4,529.9 256.7,537.1 255.9,544.3 255.1,551.6 254.4,558.8 253.6,566 252.9,573.3 252.1,580.5 251.4,587.7 
			250.6,595 249.9,602.2 257.8,602.8 265.8,603.2 273.7,603.3 281.6,603.1 289.6,602.5 289,595.3 288.4,588.1 287.7,580.8 
			287.1,573.6 286.5,566.3 285.9,559.1 285.3,551.9 284.7,544.6 284,537.4 283.4,530.1 282.8,522.9 282.2,515.6 281.6,508.4 
			281,501.2 280.4,493.9 279.7,486.7 279.1,479.4 278.5,472.2 277.9,464.9 277.3,457.7 276.6,450.5 276,443.2 275.4,436 
			274.8,428.7 274.2,421.5 273.6,414.2 273,407 272.3,399.8 271.7,392.5 		"/>
		<polygon class="st9" points="271.7,392.5 268.5,399 265.3,405.6 262.1,412.1 258.9,418.6 255.7,425.1 252.5,431.7 249.3,438.2 
			246.1,444.7 242.9,451.2 239.7,457.8 236.5,464.3 233.3,470.8 230.1,477.4 226.9,483.9 223.7,490.4 220.5,496.9 217.3,503.5 
			214.1,510 210.9,516.5 207.7,523 204.5,529.6 201.3,536.1 198.1,542.6 194.9,549.2 191.7,555.7 188.5,562.2 185.3,568.7 
			182.1,575.2 178.9,581.8 185.6,584.9 192.4,587.8 199.4,590.5 206.4,592.9 213.5,595.1 215.5,588.1 217.5,581.1 219.5,574.2 
			221.5,567.2 223.5,560.2 225.5,553.2 227.5,546.2 229.6,539.2 231.6,532.2 233.6,525.2 235.6,518.3 237.6,511.3 239.6,504.3 
			241.6,497.3 243.6,490.3 245.6,483.3 247.6,476.4 249.6,469.4 251.6,462.4 253.6,455.4 255.6,448.4 257.7,441.4 259.7,434.4 
			261.7,427.5 263.7,420.5 265.7,413.5 267.7,406.5 269.7,399.5 271.7,392.5 		"/>
		<polygon class="st10" points="271.7,392.5 267.4,398.4 263.1,404.2 258.8,410.1 254.5,416 250.2,421.8 245.9,427.7 241.6,433.6 
			237.4,439.4 233.1,445.3 228.8,451.2 224.5,457 220.2,462.9 215.9,468.8 211.6,474.6 207.3,480.5 203,486.4 198.7,492.2 
			194.4,498.1 190.1,503.9 185.8,509.8 181.5,515.7 177.2,521.5 172.9,527.4 168.6,533.3 164.4,539.1 160.1,545 155.8,550.9 
			151.5,556.7 147.2,562.6 153.2,566.9 159.4,570.9 165.8,574.8 172.3,578.4 178.9,581.8 182.1,575.2 185.3,568.7 188.5,562.2 
			191.7,555.7 194.9,549.2 198.1,542.6 201.3,536.1 204.5,529.6 207.7,523 210.9,516.5 214.1,510 217.3,503.5 220.5,496.9 
			223.7,490.4 226.9,483.9 230.1,477.4 233.3,470.8 236.5,464.3 239.7,457.8 242.9,451.2 246.1,444.7 249.3,438.2 252.5,431.7 
			255.7,425.1 258.9,418.6 262.1,412.1 265.3,405.6 268.5,399 271.7,392.5 		"/>
		<polygon class="st11" points="271.7,392.5 269.7,399.5 267.7,406.5 265.7,413.5 263.7,420.5 261.7,427.5 259.7,434.4 257.7,441.4 
			255.6,448.4 253.6,455.4 251.6,462.4 249.6,469.4 247.6,476.4 245.6,483.3 243.6,490.3 241.6,497.3 239.6,504.3 237.6,511.3 
			235.6,518.3 233.6,525.2 231.6,532.2 229.6,539.2 227.5,546.2 225.5,553.2 223.5,560.2 221.5,567.2 219.5,574.2 217.5,581.1 
			215.5,588.1 213.5,595.1 220.6,597 227.9,598.7 235.2,600.1 242.5,601.3 249.9,602.2 250.6,595 251.4,587.7 252.1,580.5 
			252.9,573.3 253.6,566 254.4,558.8 255.1,551.6 255.9,544.3 256.7,537.1 257.4,529.9 258.2,522.7 258.9,515.4 259.7,508.2 
			260.4,501 261.2,493.7 261.9,486.5 262.7,479.3 263.4,472 264.2,464.8 264.9,457.6 265.7,450.4 266.4,443.1 267.2,435.9 
			268,428.7 268.7,421.4 269.5,414.2 270.2,407 271,399.8 271.7,392.5 		"/>
		<polygon class="st12" points="271.7,392.5 265.8,396.7 259.8,400.9 253.9,405 247.9,409.2 242,413.4 236,417.6 230.1,421.7 
			224.1,425.9 218.2,430.1 212.2,434.3 206.2,438.4 200.3,442.6 194.4,446.8 188.4,451 182.4,455.1 176.5,459.3 170.6,463.5 
			164.6,467.6 158.6,471.8 152.7,476 146.7,480.2 140.8,484.3 134.8,488.5 128.9,492.7 122.9,496.9 117,501 111,505.2 105.1,509.4 
			99.1,513.6 104.2,520.5 109.6,527.2 115.2,533.8 121.1,540 126.3,535 131.5,529.9 136.7,524.8 141.9,519.7 147.1,514.6 
			152.3,509.5 157.5,504.4 162.7,499.4 167.9,494.3 173.1,489.2 178.3,484.1 183.4,479 188.6,473.9 193.8,468.8 199,463.7 
			204.2,458.6 209.4,453.6 214.6,448.5 219.8,443.4 225,438.3 230.2,433.2 235.4,428.1 240.6,423 245.8,418 250.9,412.9 
			256.1,407.8 261.3,402.7 266.5,397.6 271.7,392.5 		"/>
		<polygon class="st13" points="271.7,392.5 266.5,397.6 261.3,402.7 256.1,407.8 250.9,412.9 245.8,418 240.6,423 235.4,428.1 
			230.2,433.2 225,438.3 219.8,443.4 214.6,448.5 209.4,453.6 204.2,458.6 199,463.7 193.8,468.8 188.6,473.9 183.4,479 
			178.3,484.1 173.1,489.2 167.9,494.3 162.7,499.4 157.5,504.4 152.3,509.5 147.1,514.6 141.9,519.7 136.7,524.8 131.5,529.9 
			126.3,535 121.1,540 127.3,546.1 133.7,551.8 140.3,557.3 147.2,562.6 151.5,556.7 155.8,550.9 160.1,545 164.4,539.1 
			168.6,533.3 172.9,527.4 177.2,521.5 181.5,515.7 185.8,509.8 190.1,503.9 194.4,498.1 198.7,492.2 203,486.4 207.3,480.5 
			211.6,474.6 215.9,468.8 220.2,462.9 224.5,457 228.8,451.2 233.1,445.3 237.4,439.4 241.6,433.6 245.9,427.7 250.2,421.8 
			254.5,416 258.8,410.1 263.1,404.2 267.4,398.4 271.7,392.5 		"/>
		<polygon class="st14" points="271.7,392.5 265.2,395.7 258.6,398.9 252.1,402.1 245.6,405.3 239.1,408.5 232.5,411.7 226,414.9 
			219.5,418 212.9,421.2 206.4,424.4 199.9,427.6 193.3,430.8 186.8,434 180.3,437.2 173.8,440.4 167.2,443.6 160.7,446.8 
			154.1,450 147.6,453.1 141.1,456.3 134.6,459.5 128,462.7 121.5,465.9 115,469.1 108.4,472.3 101.9,475.5 95.4,478.7 88.8,481.9 
			82.3,485 86.1,492.4 90.2,499.6 94.5,506.7 99.1,513.6 105.1,509.4 111,505.2 117,501 122.9,496.9 128.9,492.7 134.8,488.5 
			140.8,484.3 146.7,480.2 152.7,476 158.6,471.8 164.6,467.6 170.6,463.5 176.5,459.3 182.4,455.1 188.4,451 194.4,446.8 
			200.3,442.6 206.2,438.4 212.2,434.3 218.2,430.1 224.1,425.9 230.1,421.7 236,417.6 242,413.4 247.9,409.2 253.9,405 
			259.8,400.9 265.8,396.7 271.7,392.5 		"/>
		<polygon class="st15" points="271.7,392.5 264.8,394.8 257.9,397.1 251,399.4 244.1,401.7 237.2,404 230.4,406.3 223.4,408.6 
			216.6,410.9 209.7,413.2 202.8,415.5 195.9,417.9 189,420.1 182.1,422.5 175.2,424.8 168.3,427.1 161.4,429.4 154.5,431.7 
			147.6,434 140.7,436.3 133.8,438.6 126.9,440.9 120,443.2 113.1,445.5 106.2,447.8 99.3,450.1 92.5,452.4 85.6,454.7 78.7,457 
			71.8,459.3 74.9,468 78.4,476.6 82.3,485 88.8,481.9 95.4,478.7 101.9,475.5 108.4,472.3 115,469.1 121.5,465.9 128,462.7 
			134.6,459.5 141.1,456.3 147.6,453.1 154.1,450 160.7,446.8 167.2,443.6 173.8,440.4 180.3,437.2 186.8,434 193.3,430.8 
			199.9,427.6 206.4,424.4 212.9,421.2 219.5,418 226,414.9 232.5,411.7 239.1,408.5 245.6,405.3 252.1,402.1 258.6,398.9 
			265.2,395.7 271.7,392.5 		"/>
		<polygon class="st16" points="271.7,392.5 264.6,393.9 257.4,395.3 250.3,396.6 243.2,398 236,399.4 228.9,400.8 221.8,402.1 
			214.6,403.5 207.5,404.9 200.3,406.3 193.2,407.6 186.1,409 178.9,410.4 171.8,411.8 164.6,413.1 157.5,414.5 150.4,415.9 
			143.2,417.3 136.1,418.6 129,420 121.8,421.4 114.7,422.8 107.6,424.1 100.4,425.5 93.3,426.9 86.1,428.3 79,429.6 71.9,431 
			64.7,432.4 66.7,441.5 69,450.4 71.8,459.3 78.7,457 85.6,454.7 92.5,452.4 99.3,450.1 106.2,447.8 113.1,445.5 120,443.2 
			126.9,440.9 133.8,438.6 140.7,436.3 147.6,434 154.5,431.7 161.4,429.4 168.3,427.1 175.2,424.8 182.1,422.5 189,420.1 
			195.9,417.9 202.8,415.5 209.7,413.2 216.6,410.9 223.4,408.6 230.4,406.3 237.2,404 244.1,401.7 251,399.4 257.9,397.1 
			264.8,394.8 271.7,392.5 		"/>
		<radialGradient id="SVGID_7_" cx="166.325" cy="307.05" r="115.7878" gradientUnits="userSpaceOnUse">
			<stop  offset="0" style="stop-color:#FFFFFF"/>
			<stop  offset="0.363" style="stop-color:#F8F8F8"/>
			<stop  offset="0.4742" style="stop-color:#ECECEC"/>
			<stop  offset="0.6765" style="stop-color:#CBCBCB"/>
			<stop  offset="0.9452" style="stop-color:#979797"/>
			<stop  offset="0.984" style="stop-color:#8F8F8F"/>
		</radialGradient>
		<radialGradient id="SVGID_8_" cx="166.325" cy="307.05" r="116.2859" gradientUnits="userSpaceOnUse">
			<stop  offset="0" style="stop-color:#FFFFFF"/>
			<stop  offset="7.990868e-02" style="stop-color:#F8F8F8"/>
			<stop  offset="0.2432" style="stop-color:#E5E5E5"/>
			<stop  offset="0.575" style="stop-color:#B4B4B3"/>
			<stop  offset="0.9338" style="stop-color:#787877"/>
			<stop  offset="1" style="stop-color:#4F4F4F"/>
		</radialGradient>
		<polygon class="st17" points="271.7,392.5 271.7,385.2 271.7,378 271.7,370.7 271.7,363.4 271.7,356.2 271.7,348.9 271.7,341.6 
			271.7,334.4 271.7,327.1 271.7,319.8 271.7,312.6 271.7,305.3 271.7,298 271.7,290.8 271.7,283.5 271.7,276.2 271.7,269 
			271.7,261.7 271.7,254.4 271.7,247.1 271.7,239.9 271.7,232.6 271.7,225.3 271.7,218.1 271.7,210.8 271.7,203.5 271.7,196.3 
			271.7,189 271.7,181.7 264.6,181.8 257.5,182.2 250.3,182.8 243.2,183.6 236.2,184.7 229.2,186.1 222.2,187.6 215.3,189.4 
			208.4,191.4 201.7,193.7 195,196.2 188.4,198.9 181.9,201.8 175.5,205 169.2,208.3 163,211.9 156.9,215.7 151,219.7 145.2,223.9 
			139.6,228.2 134.1,232.8 128.8,237.6 123.6,242.5 118.6,247.6 113.8,252.9 109.2,258.3 104.7,263.9 100.5,269.6 96.4,275.5 
			92.5,281.5 88.9,287.6 85.4,293.9 82.2,300.2 79.2,306.7 76.4,313.3 73.8,319.9 71.5,326.7 69.3,333.5 67.5,340.4 65.8,347.3 
			64.4,354.3 63.2,361.4 62.3,368.4 61.6,375.5 61.2,382.6 60.9,389.8 61,396.9 61.2,404.1 61.8,411.2 62.5,418.3 63.5,425.4 
			64.7,432.4 71.9,431 79,429.6 86.1,428.3 93.3,426.9 100.4,425.5 107.6,424.1 114.7,422.8 121.8,421.4 129,420 136.1,418.6 
			143.2,417.3 150.4,415.9 157.5,414.5 164.6,413.1 171.8,411.8 178.9,410.4 186.1,409 193.2,407.6 200.3,406.3 207.5,404.9 
			214.6,403.5 221.8,402.1 228.9,400.8 236,399.4 243.2,398 250.3,396.6 257.4,395.3 264.6,393.9 271.7,392.5 		"/>
	</g>
</g>
<g>
	<defs>
		<rect id="SVGID_9_" y="0" width="720" height="720"/>
	</defs>
	<clipPath id="SVGID_10_">
		<use xlink:href="#SVGID_9_"  style="overflow:visible;"/>
	</clipPath>
	<g class="st18">
		<line class="st19" x1="567.5" y1="532.1" x2="553.1" y2="532.1"/>
		<rect x="574.4" y="239.9" class="st20" width="107.7" height="20.1"/>
		<text transform="matrix(1 0 0 1 574.4102 252.7557)" class="st21"><tspan x="0" y="0" class="st22 st23 st24">Heliod</tspan><tspan x="46.1" y="0" class="st22 st23 st24 st25"> </tspan><tspan x="51.6" y="0" class="st22 st23 st24">Combo</tspan></text>
		<text transform="matrix(1 0 0 1 574.41 271.74)" class="st22 st23 st24">Eldrazi Tron</text>
		<text transform="matrix(1 0 0 1 574.41 289.02)" class="st22 st23 st24">Dredge</text>
		<rect x="574.4" y="291.7" class="st20" width="104.6" height="20.1"/>
		<text transform="matrix(1 0 0 1 574.4102 304.5961)" class="st21"><tspan x="0" y="0" class="st22 st23 st24">Boros</tspan><tspan x="38.6" y="0" class="st22 st23 st24 st26"> </tspan><tspan x="47.5" y="0" class="st22 st23 st24">Prowess</tspan></text>
		<text transform="matrix(1 0 0 1 574.41 323.58)" class="st22 st23 st24">Esper Control</text>
		<rect x="574.4" y="326.3" class="st20" width="93.6" height="20.1"/>
		<text transform="matrix(1 0 0 1 574.4102 339.1556)" class="st21"><tspan x="0" y="0" class="st22 st23 st24">Dimir</tspan><tspan x="35.7" y="0" class="st22 st23 st24"> </tspan><tspan x="40" y="0" class="st22 st23 st24">Control</tspan></text>
		<text transform="matrix(1 0 0 1 574.41 358.14)" class="st22 st23 st24">Niv To Light</text>
		<text transform="matrix(1 0 0 1 574.41 375.42)" class="st22 st23 st24">Green Tron</text>
		<text transform="matrix(1 0 0 1 574.41 392.7)" class="st22 st23 st24">Shadow Prowess</text>
		<rect x="574.4" y="395.4" class="st20" width="92.6" height="20.1"/>
		<text transform="matrix(1 0 0 1 574.4102 408.2758)" class="st21"><tspan x="0" y="0" class="st22 st23 st24">Izzet</tspan><tspan x="31" y="0" class="st22 st23 st24"> </tspan><tspan x="35.5" y="0" class="st22 st23 st24">Prowess</tspan></text>
		<rect x="574.4" y="412.7" class="st20" width="95.6" height="20.1"/>
		<text transform="matrix(1 0 0 1 574.4102 425.556)" class="st21"><tspan x="0" y="0" class="st22 st23 st24">Grixis</tspan><tspan x="36.6" y="0" class="st22 st23 st24 st25"> </tspan><tspan x="42" y="0" class="st22 st23 st24">Control</tspan></text>
		<rect x="574.4" y="430" class="st20" width="35.9" height="20.1"/>
		<text transform="matrix(1 0 0 1 574.4102 442.8363)" class="st21"><tspan x="0" y="0" class="st22 st23 st24 st25">Bur</tspan><tspan x="26.8" y="0" class="st22 st23 st24">n</tspan></text>
		<text transform="matrix(1 0 0 1 574.41 461.82)" class="st22 st23 st24">Humans</text>
		<text transform="matrix(1 0 0 1 574.41 479.1)" class="st22 st23 st24">Hammer Time</text>
		<text transform="matrix(1 0 0 1 574.41 496.38)" class="st22 st23 st24">Amulet Titan</text>
		<text transform="matrix(1 0 0 1 574.41 513.66)" class="st22 st23 st24">Jund Shadow</text>
		<rect x="574.4" y="516.4" class="st20" width="112.5" height="20.1"/>
		<text transform="matrix(1 0 0 1 574.4102 529.2357)" class="st21"><tspan x="0" y="0" class="st22 st23 st24">Jund</tspan><tspan x="35.8" y="0" class="st22 st23 st24 st25"> </tspan><tspan x="41.6" y="0" class="st22 st23 st24">Midrange</tspan></text>
		<text transform="matrix(0.9364 0 0 1 574.4102 548.2201)" class="st22 st23 st24">Other (each &lt;2%)</text>
		<text transform="matrix(1 0 0 1 277.2295 118.8647)" class="st22 st23 st27">by Anael Yahi</text>
		<rect x="16.5" y="57.5" class="st20" width="630" height="23.7"/>
		<text transform="matrix(1 0 0 1 16.4844 72.9837)" class="st21"><tspan x="0" y="0" class="st22 st23 st27">Proportion</tspan><tspan x="89.8" y="0" class="st22 st23 st27 st25"> </tspan><tspan x="95.8" y="0" class="st22 st23 st27">of</tspan><tspan x="113.2" y="0" class="st22 st23 st27 st25"> </tspan><tspan x="119.2" y="0" class="st22 st23 st27">Exact</tspan><tspan x="167.6" y="0" class="st22 st23 st27 st25"> </tspan><tspan x="173.6" y="0" class="st22 st23 st27">archetypes</tspan><tspan x="272.3" y="0" class="st22 st23 st27 st25"> </tspan><tspan x="278.3" y="0" class="st22 st23 st27">in</tspan><tspan x="292.9" y="0" class="st22 st23 st27 st25"> </tspan><tspan x="298.9" y="0" class="st22 st23 st27">MTGO</tspan><tspan x="354.4" y="0" class="st22 st23 st27 st25"> </tspan><tspan x="360.4" y="0" class="st22 st23 st27">Official</tspan><tspan x="422.1" y="0" class="st22 st23 st27 st25"> </tspan><tspan x="428.1" y="0" class="st22 st23 st27">Competitions</tspan><tspan x="544.6" y="0" class="st22 st23 st27 st25"> </tspan><tspan x="550.6" y="0" class="st22 st23 st27">between</tspan></text>
		<rect x="74.6" y="79.1" class="st20" width="519.3" height="23.7"/>
		<text transform="matrix(1 0 0 1 74.5947 94.5834)" class="st21"><tspan x="0" y="0" class="st22 st23 st27">2021-04-15</tspan><tspan x="91.8" y="0" class="st22 st23 st27 st28"> </tspan><tspan x="100.3" y="0" class="st22 st23 st27">and</tspan><tspan x="135.9" y="0" class="st22 st23 st27 st28"> </tspan><tspan x="144.5" y="0" class="st22 st23 st27">2021-04-20</tspan><tspan x="236.2" y="0" class="st22 st23 st27 st28"> </tspan><tspan x="244.8" y="0" class="st22 st23 st27">based</tspan><tspan x="300.4" y="0" class="st22 st23 st27 st28"> </tspan><tspan x="309" y="0" class="st22 st23 st27">on</tspan><tspan x="331.7" y="0" class="st22 st23 st27 st28"> </tspan><tspan x="340.3" y="0" class="st22 st23 st27">number</tspan><tspan x="408.5" y="0" class="st22 st23 st27 st28"> </tspan><tspan x="417.1" y="0" class="st22 st23 st27">of</tspan><tspan x="434.5" y="0" class="st22 st23 st27 st28"> </tspan><tspan x="443.1" y="0" class="st22 st23 st27">Matches</tspan></text>
	</g>
</g>
<image style="overflow:visible;" width="213" height="154" xlink:href="../../../../../../../MKM/Piechart_test/1x/Plan de travail 1.png"  transform="matrix(1 0 0 1 269.5 249.89)">
</image>
<image style="overflow:visible;" width="212" height="83" xlink:href="../../../../../../../MKM/Piechart_test/1x/Fichier 5.png"  transform="matrix(1 0 0 1 272 351.39)">
</image>
<image style="overflow:visible;" width="208" height="105" xlink:href="../../../../../../../MKM/Piechart_test/1x/Fichier 7.png"  transform="matrix(1 0 0 1 271 390.5463)">
</image>
<image style="overflow:visible;" width="184" height="155" xlink:href="../../../../../../../MKM/Piechart_test/1x/Fichier 8.png"  transform="matrix(1 0 0 1 271 391.39)">
</image>
<image style="overflow:visible;" width="146" height="185" xlink:href="../../../../../../../MKM/Piechart_test/1x/Fichier 9.png"  transform="matrix(1 0 0 1 270 392.39)">
</image>
<image style="overflow:visible;" width="104" height="203" xlink:href="../../../../../../../MKM/Piechart_test/1x/Fichier 10.png"  transform="matrix(1 0 0 1 271 390.39)">
</image>
<image style="overflow:visible;" width="60" height="211" xlink:href="../../../../../../../MKM/Piechart_test/1x/Fichier 11.png"  transform="matrix(1 0 0 1 271 390.39)">
</image>
<image style="overflow:visible;" width="40" height="211" xlink:href="../../../../../../../MKM/Piechart_test/1x/Fichier 12.png"  transform="matrix(1 0 0 1 250 390.39)">
</image>
<image style="overflow:visible;" width="160" height="211" xlink:href="../../../../../../../MKM/Piechart_test/1x/Fichier 13.png"  transform="matrix(1 0 0 1 272.5 181.0775)">
</image>
<image style="overflow:visible;" width="60" height="211" xlink:href="../../../../../../../MKM/Piechart_test/1x/Fichier 14.png"  transform="matrix(1 0 0 1 212 389.39)">
</image>
<image style="overflow:visible;" width="94" height="203" xlink:href="../../../../../../../MKM/Piechart_test/1x/Fichier 15.png"  transform="matrix(1 0 0 1 179 390.39)">
</image>
<image style="overflow:visible;" width="126" height="191" xlink:href="../../../../../../../MKM/Piechart_test/1x/Fichier 17.png"  transform="matrix(1 0 0 1 146.5 389.39)">
</image>
<image style="overflow:visible;" width="152" height="171" xlink:href="../../../../../../../MKM/Piechart_test/1x/Fichier 18.png"  transform="matrix(1 0 0 1 121 389.39)">
</image>
<image style="overflow:visible;" width="174" height="149" xlink:href="../../../../../../../MKM/Piechart_test/1x/Fichier 19.png"  transform="matrix(1 0 0 1 99 389.39)">
</image>
<image style="overflow:visible;" width="190" height="123" xlink:href="../../../../../../../MKM/Piechart_test/1x/Fichier 20.png"  transform="matrix(1 0 0 1 83 389.39)">
</image>
<image style="overflow:visible;" width="200" height="93" xlink:href="../../../../../../../MKM/Piechart_test/1x/Fichier 21.png"  transform="matrix(1 0 0 1 72.6562 390.2963)">
</image>
<image style="overflow:visible;" width="208" height="67" xlink:href="../../../../../../../MKM/Piechart_test/1x/Fichier 22.png"  transform="matrix(1 0 0 1 64.4375 390.64)">
</image>
<text transform="matrix(1 0 0 1 422.3707 314.0961)" class="st29 st30 st31">8.3%</text>
<text transform="matrix(1 0 0 1 440.7853 403.5278)" class="st29 st30 st31">6.2%</text>
<text transform="matrix(1 0 0 1 427.4373 463.4954)" class="st29 st30 st31">4.9%</text>
<text transform="matrix(1 0 0 1 401.9013 516.8665)" class="st29 st30 st31">4.8%</text>
<text transform="matrix(1 0 0 1 375.4013 554.5735)" class="st29 st30 st31">4%</text>
<text transform="matrix(1 0 0 1 330.0458 575.6378)" class="st29 st30 st31">3.5%</text>
<text transform="matrix(1 0 0 1 290.8207 589.3561)" class="st29 st30 st31">3.2%</text>
<text transform="matrix(1 0 0 1 259.3749 593.7557)" class="st29 st30 st31">3%</text>
<text transform="matrix(1 0 0 1 182.7947 579.1901)" class="st29 st30 st31">2.8%</text>
<text transform="matrix(1 0 0 1 153.8207 560.9462)" class="st29 st30 st31">2.8%</text>
<text transform="matrix(1 0 0 1 219.5986 587.647)" class="st29 st30 st31">2.8%</text>
<text transform="matrix(1 0 0 1 110.3207 517.1261)" class="st29 st30 st31">2.6%</text>
<text transform="matrix(1 0 0 1 130.7457 541.8949)" class="st29 st30 st31">2.6%</text>
<text transform="matrix(1 0 0 1 91.4884 491.4294)" class="st29 st30 st31">2.5%</text>
<text transform="matrix(1 0 0 1 80.5063 470.9036)" class="st29 st30 st31">2.1%</text>
<text transform="matrix(1 0 0 1 69.3836 442.1314)" class="st29 st30 st31">2.1%</text>
<text transform="matrix(1 0 0 1 112.523 277.609)" class="st29 st30 st31">28%</text>
<text transform="matrix(1 0 0 1 331.6006 228.191)" class="st29 st30 st31">13.7%</text>
</svg>
