<?xml version="1.0" encoding="utf-8"?>
<!-- Generator: Adobe Illustrator 25.4.1, SVG Export Plug-In . SVG Version: 6.00 Build 0)  -->
<svg version="1.1" id="Layer_1" xmlns="http://www.w3.org/2000/svg" xmlns:xlink="http://www.w3.org/1999/xlink" x="0px" y="0px"
	 viewBox="0 0 947.5 753.2" style="enable-background:new 0 0 947.5 753.2;" xml:space="preserve">
<style type="text/css">
	.st0{fill:url(#SVGID_1_);stroke:#2E5E82;stroke-width:6;stroke-miterlimit:10;}
	.st1{enable-background:new    ;}
	.st2{fill:#004D94;stroke:#004D94;stroke-miterlimit:10;}
	.st3{font-family:'ArialMT';}
	.st4{font-size:17px;}
	.st5{fill:#AAACAE;stroke:#AAACAE;stroke-miterlimit:10;}
	.st6{fill:none;}
	.st7{fill:none;stroke:#2E5E82;stroke-width:3;stroke-miterlimit:10;}
	.st8{fill:url(#SVGID_00000000945253701556105680000006323971483299249555_);}
</style>
<radialGradient id="SVGID_1_" cx="457.4098" cy="392.52" r="210.545" gradientUnits="userSpaceOnUse">
	<stop  offset="0" style="stop-color:#FFFFFF"/>
	<stop  offset="0.9804" style="stop-color:#2D5E80"/>
</radialGradient>
<circle class="st0" cx="457.4" cy="392.5" r="210.5"/>
<g>
	<defs>
		<rect id="SVGID_00000053503620956721152770000017349857284863498900_" x="185.9" y="0" width="720" height="720"/>
	</defs>
	<clipPath id="SVGID_00000005268748476506925030000007591703970375166101_">
		<use xlink:href="#SVGID_00000053503620956721152770000017349857284863498900_"  style="overflow:visible;"/>
	</clipPath>
</g>
<g>
	<defs>
		<rect id="SVGID_00000103952800372222620190000018140813361859332789_" x="185.9" y="0" width="720" height="720"/>
	</defs>
	<clipPath id="SVGID_00000031190112042067483320000017589505278023027080_">
		<use xlink:href="#SVGID_00000103952800372222620190000018140813361859332789_"  style="overflow:visible;"/>
	</clipPath>
</g>
<g>
	<g>
	</g>
</g>
<g>
	<g>
		<text transform="matrix(1 0 0 1 496.9276 176.2632)" class="st1"><tspan x="0" y="0" class="st2 st3 st4">Hammer Time </tspan><tspan x="112.4" y="0" class="st5 st3 st4">(13.3%)</tspan></text>
		<rect x="667.6" y="276.2" class="st6" width="35.9" height="20.1"/>
		<text transform="matrix(1 0 0 1 674.3276 441.6018)" class="st1"><tspan x="0" y="0" class="st2 st3 st4">Azorius Control </tspan><tspan x="120.9" y="0" class="st5 st3 st4">(9.7%)</tspan></text>
		<text transform="matrix(1 0 0 1 624.1736 546.6735)" class="st1"><tspan x="0" y="0" class="st2 st3 st4">Temur Footfalls </tspan><tspan x="122.8" y="0" class="st5 st3 st4">(7.9%)</tspan></text>
		<text transform="matrix(1 0 0 1 101.1717 492.3698)" class="st1"><tspan x="0" y="0" class="st2 st3 st4">WURG Blink </tspan><tspan x="100.1" y="0" class="st5 st3 st4">(3.3%)</tspan></text>
		<text transform="matrix(1 0 0 1 78.7087 414.8588)" class="st1"><tspan x="0" y="0" class="st2 st3 st4">Amulet Titan </tspan><tspan x="100.1" y="0" class="st5 st3 st4">(2.1%)</tspan></text>
		<text transform="matrix(1 0 0 1 157.9837 239.3587)" class="st1"><tspan x="0" y="0" class="st2 st3 st4">Other </tspan><tspan x="47.2" y="0" class="st5 st3 st4">(each &lt;2%)</tspan></text>
	</g>
</g>
<g>
	<defs>
		<polygon id="SVGID_00000154417971353042845870000018211293704327969954_" points="458,392.7 463.4,387.8 468.8,383 474.2,378.1 
			479.6,373.2 485,368.3 490.4,363.5 495.8,358.6 501.2,353.7 506.6,348.9 512,344 517.4,339.1 522.7,334.2 528.1,329.4 
			533.5,324.5 538.9,319.6 544.3,314.8 549.7,309.9 555.1,305 560.5,300.2 565.9,295.3 571.3,290.4 576.7,285.5 582.1,280.7 
			587.5,275.8 592.9,270.9 598.3,266.1 603.7,261.2 609.1,256.3 614.5,251.4 609.5,246.1 604.3,240.9 598.9,235.9 593.3,231.1 
			587.6,226.5 581.7,222 575.7,217.8 569.6,213.8 563.3,210.1 556.8,206.5 550.3,203.2 543.6,200.1 536.9,197.2 530,194.6 
			523,192.2 516,190 508.9,188.1 501.8,186.5 494.5,185.1 487.3,183.9 480,183 472.7,182.4 465.3,182 458,181.9 458,189.2 
			458,196.4 458,203.7 458,211 458,218.2 458,225.5 458,232.8 458,240 458,247.3 458,254.6 458,261.9 458,269.1 458,276.4 
			458,283.7 458,290.9 458,298.2 458,305.5 458,312.7 458,320 458,327.3 458,334.5 458,341.8 458,349.1 458,356.3 458,363.6 
			458,370.9 458,378.2 458,385.4 458,392.7 		"/>
	</defs>
	<clipPath id="SVGID_00000103226856963172895440000007971030968860220291_">
		<use xlink:href="#SVGID_00000154417971353042845870000018211293704327969954_"  style="overflow:visible;"/>
	</clipPath>
	
		<g transform="matrix(1 0 0 1 -3.051758e-05 0)" style="clip-path:url(#SVGID_00000103226856963172895440000007971030968860220291_);">
		
			<image style="overflow:visible;" width="700" height="698" xlink:href="../../../../../../../MKM/Tiers_list_pics/Already_uploaded/hammer_time.JPG"  transform="matrix(0.3486 0 0 0.3486 421.631 181.8996)">
		</image>
	</g>
</g>
<g>
	<defs>
		<polygon id="SVGID_00000018932058451657840250000001299210169800340904_" points="458,392.7 465.2,391.9 472.5,391.2 479.7,390.4 
			486.9,389.6 494.1,388.9 501.4,388.1 508.6,387.3 515.8,386.6 523.1,385.8 530.3,385 537.5,384.3 544.7,383.5 552,382.8 
			559.2,382 566.4,381.2 573.7,380.5 580.9,379.7 588.1,378.9 595.3,378.2 602.6,377.4 609.8,376.6 617,375.9 624.3,375.1 
			631.5,374.3 638.7,373.6 645.9,372.8 653.2,372.1 660.4,371.3 667.6,370.5 666.7,363.2 665.6,355.9 664.2,348.7 662.5,341.5 
			660.6,334.4 658.4,327.4 656,320.4 653.4,313.5 650.5,306.8 647.4,300.1 644,293.5 640.4,287.1 636.6,280.8 632.6,274.6 
			628.4,268.6 624,262.7 619.3,257 614.5,251.4 609.1,256.3 603.7,261.2 598.3,266.1 592.9,270.9 587.5,275.8 582.1,280.7 
			576.7,285.5 571.3,290.4 565.9,295.3 560.5,300.2 555.1,305 549.7,309.9 544.3,314.8 538.9,319.6 533.5,324.5 528.1,329.4 
			522.7,334.2 517.4,339.1 512,344 506.6,348.9 501.2,353.7 495.8,358.6 490.4,363.5 485,368.3 479.6,373.2 474.2,378.1 468.8,383 
			463.4,387.8 458,392.7 		"/>
	</defs>
	<clipPath id="SVGID_00000106135409896194963600000002101978527238124212_">
		<use xlink:href="#SVGID_00000018932058451657840250000001299210169800340904_"  style="overflow:visible;"/>
	</clipPath>
	<g style="clip-path:url(#SVGID_00000106135409896194963600000002101978527238124212_);">
		
			<image style="overflow:visible;" width="686" height="691" xlink:href="../../../../../../../MKM/Tiers_list_pics/Already_uploaded/Burn.JPG"  transform="matrix(0.3056 0 0 0.3056 457.9948 223.651)">
		</image>
	</g>
</g>
<g>
	<defs>
		<polygon id="SVGID_00000041983879770528311400000007671221975895898809_" points="457.4,392.3 463.8,395.8 470.1,399.3 
			476.5,402.8 482.9,406.3 489.2,409.9 495.6,413.4 501.9,416.9 508.3,420.4 514.7,423.9 521,427.4 527.4,430.9 533.8,434.5 
			540.1,438 546.5,441.5 552.8,445 559.2,448.5 565.6,452 571.9,455.6 578.3,459.1 584.7,462.6 591,466.1 597.4,469.6 603.7,473.1 
			610.1,476.6 616.5,480.2 622.8,483.7 629.2,487.2 635.6,490.7 641.9,494.2 645.3,487.9 648.4,481.5 651.3,475 654,468.3 
			656.5,461.6 658.7,454.9 660.7,448 662.5,441.1 664,434.1 665.3,427.1 666.4,420 667.2,412.9 667.8,405.8 668.1,398.7 
			668.2,391.5 668.1,384.4 667.7,377.2 667,370.1 659.8,370.9 652.6,371.6 645.4,372.4 638.1,373.2 630.9,373.9 623.7,374.7 
			616.4,375.5 609.2,376.2 602,377 594.8,377.8 587.5,378.5 580.3,379.3 573.1,380.1 565.8,380.8 558.6,381.6 551.4,382.3 
			544.2,383.1 536.9,383.9 529.7,384.6 522.5,385.4 515.2,386.2 508,386.9 500.8,387.7 493.6,388.5 486.3,389.2 479.1,390 
			471.9,390.8 464.6,391.5 457.4,392.3 		"/>
	</defs>
	<clipPath id="SVGID_00000080187484944584963230000010606609573503750312_">
		<use xlink:href="#SVGID_00000041983879770528311400000007671221975895898809_"  style="overflow:visible;"/>
	</clipPath>
	
		<g transform="matrix(1 0 0 1 0 -3.051758e-05)" style="clip-path:url(#SVGID_00000080187484944584963230000010606609573503750312_);">
		
			<image style="overflow:visible;" width="708" height="708" xlink:href="../../../../../../../MKM/Tiers_list_pics/Already_uploaded/Azorius_Control3.JPG"  transform="matrix(0.3056 0 0 0.3056 454.6332 333.8672)">
		</image>
	</g>
</g>
<g>
	<defs>
		<polygon id="SVGID_00000124839984492966221940000017277524605291982761_" points="457.4,392.7 461.3,398.8 465.2,404.9 
			469.2,411.1 473.1,417.2 477,423.3 480.9,429.4 484.8,435.6 488.8,441.7 492.7,447.8 496.6,453.9 500.5,460 504.4,466.2 
			508.3,472.3 512.3,478.4 516.2,484.5 520.1,490.7 524,496.8 527.9,502.9 531.8,509 535.8,515.1 539.7,521.3 543.6,527.4 
			547.5,533.5 551.4,539.6 555.3,545.8 559.3,551.9 563.2,558 567.1,564.1 571,570.3 577.2,566.1 583.3,561.7 589.2,557.2 
			595,552.4 600.6,547.4 606,542.2 611.2,536.9 616.2,531.3 621,525.6 625.6,519.7 630,513.7 634.2,507.5 638.2,501.1 641.9,494.6 
			635.6,491.1 629.2,487.6 622.8,484.1 616.5,480.6 610.1,477.1 603.7,473.5 597.4,470 591,466.5 584.7,463 578.3,459.5 571.9,456 
			565.6,452.4 559.2,448.9 552.8,445.4 546.5,441.9 540.1,438.4 533.8,434.9 527.4,431.4 521,427.8 514.7,424.3 508.3,420.8 
			501.9,417.3 495.6,413.8 489.2,410.3 482.9,406.8 476.5,403.2 470.1,399.7 463.8,396.2 457.4,392.7 		"/>
	</defs>
	<clipPath id="SVGID_00000000223099224940672820000012554954878846081966_">
		<use xlink:href="#SVGID_00000124839984492966221940000017277524605291982761_"  style="overflow:visible;"/>
	</clipPath>
	<g style="clip-path:url(#SVGID_00000000223099224940672820000012554954878846081966_);">
		
			<image style="overflow:visible;" width="720" height="722" xlink:href="../../../../../../../MKM/Tiers_list_pics/Temur_Footfalls.JPG"  transform="matrix(0.4125 0 0 0.4125 346.5291 341.5089)">
		</image>
	</g>
</g>
<g>
	<defs>
		<polygon id="SVGID_00000005240416721038591800000000367215616487432843_" points="457.4,392.9 458.4,400.1 459.4,407.3 
			460.3,414.5 461.3,421.8 462.3,429 463.3,436.2 464.3,443.4 465.2,450.6 466.2,457.8 467.2,465 468.2,472.2 469.2,479.4 
			470.1,486.6 471.1,493.8 472.1,501 473.1,508.2 474.1,515.4 475,522.6 476,529.8 477,537 478,544.2 479,551.4 479.9,558.6 
			480.9,565.8 481.9,573 482.9,580.2 483.9,587.4 484.8,594.6 485.8,601.8 493.4,600.7 500.8,599.2 508.3,597.5 515.6,595.5 
			522.9,593.3 530.1,590.8 537.2,588 544.2,585 551.1,581.8 557.9,578.2 564.5,574.5 571,570.5 567.1,564.4 563.2,558.3 
			559.3,552.1 555.3,546 551.4,539.9 547.5,533.8 543.6,527.6 539.7,521.5 535.8,515.4 531.8,509.3 527.9,503.2 524,497 
			520.1,490.9 516.2,484.8 512.3,478.7 508.3,472.5 504.4,466.4 500.5,460.3 496.6,454.2 492.7,448 488.8,441.9 484.8,435.8 
			480.9,429.7 477,423.6 473.1,417.4 469.2,411.3 465.2,405.2 461.3,399.1 457.4,392.9 		"/>
	</defs>
	<clipPath id="SVGID_00000047768057185607309510000003930245997266790804_">
		<use xlink:href="#SVGID_00000005240416721038591800000000367215616487432843_"  style="overflow:visible;"/>
	</clipPath>
	
		<g transform="matrix(1 0 0 1 0 -6.103516e-05)" style="clip-path:url(#SVGID_00000047768057185607309510000003930245997266790804_);">
		
			<image style="overflow:visible;" width="919" height="1280" xlink:href="43E1FBCB.jpg"  transform="matrix(-3.925189e-04 -0.253 0.253 -3.925189e-04 250.0863 626.2275)">
		</image>
	</g>
</g>
<g>
	<defs>
		<polygon id="SVGID_00000026160442733043664200000006475083160140303513_" points="456.9,393 454.8,400 452.8,406.9 450.7,413.9 
			448.7,420.9 446.6,427.8 444.5,434.8 442.5,441.8 440.4,448.8 438.4,455.7 436.3,462.7 434.3,469.7 432.2,476.7 430.2,483.6 
			428.1,490.6 426.1,497.6 424,504.6 422,511.5 419.9,518.5 417.9,525.5 415.8,532.4 413.8,539.4 411.7,546.4 409.7,553.4 
			407.6,560.3 405.6,567.3 403.5,574.3 401.5,581.3 399.4,588.2 397.4,595.2 404.5,597.2 411.7,598.9 419,600.3 426.3,601.5 
			433.6,602.5 441,603.2 448.4,603.6 455.8,603.8 463.2,603.7 470.6,603.3 477.9,602.7 485.3,601.9 484.3,594.7 483.3,587.4 
			482.3,580.2 481.4,573 480.4,565.8 479.4,558.6 478.4,551.4 477.4,544.2 476.5,537 475.5,529.8 474.5,522.6 473.5,515.4 
			472.5,508.2 471.6,501 470.6,493.8 469.6,486.6 468.6,479.4 467.6,472.2 466.7,465 465.7,457.8 464.7,450.6 463.7,443.4 
			462.7,436.2 461.8,429 460.8,421.8 459.8,414.6 458.8,407.4 457.8,400.2 456.9,393 		"/>
	</defs>
	<clipPath id="SVGID_00000147908984281382945250000013901193161566843803_">
		<use xlink:href="#SVGID_00000026160442733043664200000006475083160140303513_"  style="overflow:visible;"/>
	</clipPath>
	<g style="clip-path:url(#SVGID_00000147908984281382945250000013901193161566843803_);">
		
			<image style="overflow:visible;" width="646" height="652" xlink:href="../../../../../../../MKM/Tiers_list_pics/Jund_Saga.JPG"  transform="matrix(0.3911 0 0 0.3911 303.1404 398.9852)">
		</image>
	</g>
</g>
<g>
	<defs>
		<polygon id="SVGID_00000122678654256312664110000004630977359940302742_" points="458.3,393.1 454.4,399.2 450.5,405.3 
			446.6,411.5 442.7,417.6 438.8,423.7 434.8,429.8 430.9,436 427,442.1 423.1,448.2 419.2,454.3 415.3,460.5 411.3,466.6 
			407.4,472.7 403.5,478.8 399.6,484.9 395.7,491.1 391.8,497.2 387.8,503.3 383.9,509.4 380,515.6 376.1,521.7 372.2,527.8 
			368.2,533.9 364.3,540 360.4,546.2 356.5,552.3 352.6,558.4 348.7,564.5 344.7,570.7 351.1,574.6 357.6,578.3 364.2,581.7 
			370.9,584.9 377.8,587.9 384.7,590.6 391.7,593.1 398.8,595.3 400.9,588.4 402.9,581.4 405,574.4 407.1,567.4 409.1,560.5 
			411.2,553.5 413.2,546.5 415.3,539.5 417.3,532.6 419.4,525.6 421.4,518.6 423.5,511.6 425.5,504.7 427.6,497.7 429.6,490.7 
			431.7,483.8 433.7,476.8 435.8,469.8 437.8,462.8 439.9,455.9 441.9,448.9 444,441.9 446,434.9 448.1,428 450.1,421 452.2,414 
			454.2,407 456.3,400.1 458.3,393.1 		"/>
	</defs>
	<clipPath id="SVGID_00000137849663818715022180000006629738921816004273_">
		<use xlink:href="#SVGID_00000122678654256312664110000004630977359940302742_"  style="overflow:visible;"/>
	</clipPath>
	<g style="clip-path:url(#SVGID_00000137849663818715022180000006629738921816004273_);">
		
			<image style="overflow:visible;" width="580" height="580" xlink:href="../../../../../../../MKM/Tiers_list_pics/Already_uploaded/Living_End.JPG"  transform="matrix(0.4206 0 0 0.4206 271.5035 390.3245)">
		</image>
	</g>
</g>
<g>
	<defs>
		<polygon id="SVGID_00000160161028306646408950000002626435856723864253_" points="458.3,392.7 453,397.6 447.6,402.5 442.2,407.4 
			436.8,412.2 431.4,417.1 426.1,422 420.7,426.9 415.3,431.8 409.9,436.7 404.5,441.6 399.2,446.5 393.8,451.3 388.4,456.2 
			383,461.1 377.6,466 372.3,470.9 366.9,475.8 361.5,480.7 356.1,485.6 350.7,490.4 345.4,495.3 340,500.2 334.6,505.1 329.2,510 
			323.8,514.9 318.5,519.8 313.1,524.7 307.7,529.5 302.3,534.4 307.8,540.2 313.5,545.8 319.3,551.2 325.4,556.3 331.7,561.2 
			338.1,565.8 344.7,570.3 348.7,564.1 352.6,558 356.5,551.9 360.4,545.8 364.3,539.6 368.2,533.5 372.2,527.4 376.1,521.3 
			380,515.1 383.9,509 387.8,502.9 391.8,496.8 395.7,490.7 399.6,484.5 403.5,478.4 407.4,472.3 411.3,466.2 415.3,460 
			419.2,453.9 423.1,447.8 427,441.7 430.9,435.6 434.8,429.4 438.8,423.3 442.7,417.2 446.6,411.1 450.5,404.9 454.4,398.8 
			458.3,392.7 		"/>
	</defs>
	<clipPath id="SVGID_00000132051634604795552880000000339537595429404602_">
		<use xlink:href="#SVGID_00000160161028306646408950000002626435856723864253_"  style="overflow:visible;"/>
	</clipPath>
	<g style="clip-path:url(#SVGID_00000132051634604795552880000000339537595429404602_);">
		
			<image style="overflow:visible;" width="722" height="726" xlink:href="../../../../../../../MKM/Tiers_list_pics/Elementals.JPG"  transform="matrix(0.2871 0 0 0.2871 251.0712 395.3504)">
		</image>
	</g>
</g>
<g>
	<defs>
		<polygon id="SVGID_00000112611813444548795820000008875669887817811590_" points="458.9,393.2 452.6,396.9 446.3,400.5 440,404.1 
			433.7,407.8 427.5,411.4 421.2,415 414.9,418.7 408.6,422.3 402.3,425.9 396,429.6 389.7,433.2 383.4,436.8 377.1,440.5 
			370.8,444.1 364.5,447.7 358.2,451.4 351.9,455 345.6,458.6 339.3,462.3 333,465.9 326.7,469.5 320.4,473.2 314.1,476.8 
			307.8,480.4 301.6,484.1 295.3,487.7 289,491.4 282.7,495 276.4,498.6 280.2,505.1 284.3,511.4 288.7,517.5 293.2,523.5 
			297.9,529.3 302.9,535 308.3,530.1 313.7,525.2 319,520.3 324.4,515.4 329.8,510.5 335.2,505.6 340.6,500.7 345.9,495.9 
			351.3,491 356.7,486.1 362.1,481.2 367.5,476.3 372.8,471.4 378.2,466.5 383.6,461.6 389,456.8 394.4,451.9 399.7,447 
			405.1,442.1 410.5,437.2 415.9,432.3 421.3,427.4 426.6,422.5 432,417.7 437.4,412.8 442.8,407.9 448.2,403 453.5,398.1 
			458.9,393.2 		"/>
	</defs>
	<clipPath id="SVGID_00000049916555688319616970000018324340939355724985_">
		<use xlink:href="#SVGID_00000112611813444548795820000008875669887817811590_"  style="overflow:visible;"/>
	</clipPath>
	<g style="clip-path:url(#SVGID_00000049916555688319616970000018324340939355724985_);">
		
			<image style="overflow:visible;" width="801" height="804" xlink:href="../../../../../../../MKM/Tiers_list_pics/Already_uploaded/Yawgmoth.JPG"  transform="matrix(0.2461 0 0 0.2461 273.5747 393.2229)">
		</image>
	</g>
</g>
<g>
	<defs>
		<polygon id="SVGID_00000014611477578648369410000016967707258888891323_" points="459,393 452.1,395.3 445.2,397.6 438.3,399.8 
			431.4,402.1 424.5,404.3 417.6,406.6 410.6,408.9 403.7,411.1 396.8,413.4 389.9,415.6 383,417.9 376.1,420.2 369.2,422.4 
			362.3,424.7 355.4,426.9 348.5,429.2 341.6,431.4 334.7,433.7 327.7,436 320.8,438.2 313.9,440.5 307,442.7 300.1,445 
			293.2,447.3 286.3,449.5 279.4,451.8 272.5,454 265.6,456.3 258.7,458.6 261,465.5 263.7,472.3 266.5,479 269.6,485.6 
			272.9,492.1 276.5,498.4 282.7,494.8 289,491.2 295.3,487.5 301.6,483.9 307.9,480.3 314.2,476.6 320.5,473 326.8,469.4 
			333.1,465.7 339.4,462.1 345.7,458.5 352,454.8 358.3,451.2 364.6,447.6 370.9,443.9 377.2,440.3 383.5,436.7 389.8,433 
			396.1,429.4 402.4,425.8 408.6,422.1 414.9,418.5 421.2,414.8 427.5,411.2 433.8,407.6 440.1,403.9 446.4,400.3 452.7,396.7 
			459,393 		"/>
	</defs>
	<clipPath id="SVGID_00000121988283913026515100000003121764853148422026_">
		<use xlink:href="#SVGID_00000014611477578648369410000016967707258888891323_"  style="overflow:visible;"/>
	</clipPath>
	<g style="clip-path:url(#SVGID_00000121988283913026515100000003121764853148422026_);">
		
			<image style="overflow:visible;" width="464" height="467" xlink:href="../../../../../../../MKM/Tiers_list_pics/WURG_Blink.JPG"  transform="matrix(0.4238 0 0 0.4238 258.6544 364.8742)">
		</image>
	</g>
</g>
<g>
	<defs>
		<polygon id="SVGID_00000158749980530089840470000004543263347244596648_" points="459,394.5 451.8,395.4 444.6,396.3 437.4,397.1 
			430.1,398 422.9,398.9 415.7,399.8 408.5,400.6 401.3,401.5 394.1,402.4 386.9,403.3 379.6,404.2 372.4,405 365.2,405.9 
			358,406.8 350.8,407.7 343.6,408.5 336.3,409.4 329.1,410.3 321.9,411.2 314.7,412.1 307.5,412.9 300.3,413.8 293.1,414.7 
			285.8,415.6 278.6,416.4 271.4,417.3 264.2,418.2 257,419.1 249.8,420 250.9,428.1 252.4,436.2 254.2,444.2 256.3,452.2 
			258.7,460 265.6,457.8 272.5,455.5 279.4,453.2 286.3,451 293.2,448.7 300.1,446.5 307,444.2 313.9,441.9 320.8,439.7 
			327.7,437.4 334.7,435.2 341.6,432.9 348.5,430.6 355.4,428.4 362.3,426.1 369.2,423.9 376.1,421.6 383,419.4 389.9,417.1 
			396.8,414.8 403.7,412.6 410.6,410.3 417.6,408.1 424.5,405.8 431.4,403.5 438.3,401.3 445.2,399 452.1,396.8 459,394.5 		"/>
	</defs>
	<clipPath id="SVGID_00000168080664404580428220000016116635293929461632_">
		<use xlink:href="#SVGID_00000158749980530089840470000004543263347244596648_"  style="overflow:visible;"/>
	</clipPath>
	<g style="clip-path:url(#SVGID_00000168080664404580428220000016116635293929461632_);">
		
			<image style="overflow:visible;" width="706" height="708" xlink:href="../../../../../../../MKM/Tiers_list_pics/Jeskai_Control.JPG"  transform="matrix(0.2936 0 0 0.2936 249.7544 294.4723)">
		</image>
	</g>
</g>
<g>
	<defs>
		<polygon id="SVGID_00000036930676320622593020000003259952743518980236_" points="458.8,394.8 451.5,394.8 444.2,394.7 437,394.6 
			429.7,394.5 422.4,394.4 415.2,394.4 407.9,394.3 400.6,394.2 393.4,394.1 386.1,394 378.8,394 371.5,393.9 364.3,393.8 
			357,393.7 349.7,393.6 342.5,393.6 335.2,393.5 327.9,393.4 320.7,393.3 313.4,393.2 306.1,393.2 298.9,393.1 291.6,393 
			284.3,392.9 277.1,392.8 269.8,392.8 262.5,392.7 255.3,392.6 248,392.5 248.1,401.8 248.6,411.1 249.5,420.3 256.7,419.4 
			263.9,418.5 271.2,417.7 278.4,416.8 285.6,415.9 292.8,415 300,414.1 307.2,413.3 314.5,412.4 321.7,411.5 328.9,410.6 
			336.1,409.8 343.3,408.9 350.5,408 357.8,407.1 365,406.2 372.2,405.4 379.4,404.5 386.6,403.6 393.8,402.7 401,401.9 408.3,401 
			415.5,400.1 422.7,399.2 429.9,398.3 437.1,397.5 444.3,396.6 451.6,395.7 458.8,394.8 		"/>
	</defs>
	<clipPath id="SVGID_00000051385376069469494400000003837104426035000240_">
		<use xlink:href="#SVGID_00000036930676320622593020000003259952743518980236_"  style="overflow:visible;"/>
	</clipPath>
	<g style="clip-path:url(#SVGID_00000051385376069469494400000003837104426035000240_);">
		
			<image style="overflow:visible;" width="669" height="669" xlink:href="../../../../../../../MKM/Tiers_list_pics/Already_uploaded/Amulet_Titan.JPG"  transform="matrix(0.3156 0 0 0.3156 248.603 300.855)">
		</image>
	</g>
</g>
<g>
	<defs>
		<polygon id="SVGID_00000183961152894226100020000003075885533362654357_" points="459.8,394.4 452.6,393.4 445.4,392.4 
			438.2,391.4 431,390.4 423.8,389.4 416.6,388.4 409.4,387.4 402.2,386.4 395,385.4 387.8,384.4 380.6,383.5 373.4,382.5 
			366.2,381.5 359,380.5 351.8,379.5 344.6,378.5 337.4,377.5 330.2,376.5 323,375.5 315.8,374.5 308.6,373.5 301.3,372.6 
			294.1,371.6 286.9,370.6 279.7,369.6 272.5,368.6 265.3,367.6 258.1,366.6 250.9,365.6 249.9,374.4 249.3,383.2 249,392 
			256.3,392.1 263.5,392.2 270.8,392.3 278.1,392.4 285.3,392.4 292.6,392.5 299.9,392.6 307.1,392.7 314.4,392.8 321.7,392.8 
			328.9,392.9 336.2,393 343.5,393.1 350.7,393.2 358,393.2 365.3,393.3 372.5,393.4 379.8,393.5 387.1,393.6 394.4,393.6 
			401.6,393.7 408.9,393.8 416.2,393.9 423.4,394 430.7,394 438,394.1 445.2,394.2 452.5,394.3 459.8,394.4 		"/>
	</defs>
	<clipPath id="SVGID_00000035520651827369749940000008722393186668474753_">
		<use xlink:href="#SVGID_00000183961152894226100020000003075885533362654357_"  style="overflow:visible;"/>
	</clipPath>
	<g transform="matrix(1 0 0 1 0 0)" style="clip-path:url(#SVGID_00000035520651827369749940000008722393186668474753_);">
		
			<image style="overflow:visible;" width="645" height="647" xlink:href="../../../../../../../MKM/Tiers_list_pics/Already_uploaded/Mill.JPG"  transform="matrix(0.3241 0 0 0.3241 248.9894 332.6923)">
		</image>
	</g>
</g>
<line class="st7" x1="457.9" y1="180" x2="458.2" y2="392.6"/>
<line class="st7" x1="614.5" y1="251.4" x2="459" y2="394.4"/>
<line class="st7" x1="668.2" y1="370.1" x2="456.9" y2="393"/>
<line class="st7" x1="641.9" y1="494.2" x2="456.9" y2="393"/>
<line class="st7" x1="571" y1="573.2" x2="456.9" y2="393"/>
<line class="st7" x1="485.3" y1="601.9" x2="458" y2="392.7"/>
<line class="st7" x1="398.8" y1="595.3" x2="457.9" y2="392.2"/>
<line class="st7" x1="344.7" y1="570.3" x2="457.3" y2="392.7"/>
<line class="st7" x1="302.3" y1="534.4" x2="457.3" y2="392.7"/>
<line class="st7" x1="276.4" y1="498.6" x2="456.9" y2="392.2"/>
<line class="st7" x1="258.7" y1="460" x2="459" y2="393.2"/>
<line class="st7" x1="246.9" y1="420.3" x2="456.1" y2="392.7"/>
<line class="st7" x1="246.9" y1="392.5" x2="456.1" y2="392.7"/>
<line class="st7" x1="248" y1="365.6" x2="456.1" y2="392.7"/>
<radialGradient id="SVGID_00000134929631588587053870000011849003446695557508_" cx="459.1576" cy="513.8558" r="29.475" gradientTransform="matrix(1 0 0 1 0 -122)" gradientUnits="userSpaceOnUse">
	<stop  offset="0" style="stop-color:#FFFFFF"/>
	<stop  offset="0.127" style="stop-color:#FBFCFC"/>
	<stop  offset="0.2652" style="stop-color:#EDF2F5"/>
	<stop  offset="0.4086" style="stop-color:#D8E1E8"/>
	<stop  offset="0.5558" style="stop-color:#B9C9D5"/>
	<stop  offset="0.7058" style="stop-color:#92ABBE"/>
	<stop  offset="0.8559" style="stop-color:#6387A2"/>
	<stop  offset="1" style="stop-color:#2E5E82"/>
</radialGradient>
<circle style="fill:url(#SVGID_00000134929631588587053870000011849003446695557508_);" cx="459.2" cy="391.9" r="29.5"/>
<text transform="matrix(1 0 0 1 661.0389 302.514)"><tspan x="0" y="0" class="st2 st3 st4">Burn </tspan><tspan x="40.6" y="0" class="st5 st3 st4">(10%)</tspan></text>
<text transform="matrix(1 0 0 1 531.1875 610.1654)"><tspan x="0" y="0" class="st2 st3 st4">Izzet Murktide </tspan><tspan x="110.5" y="0" class="st5 st3 st4">(6.9%)</tspan></text>
<text transform="matrix(1 0 0 1 366.6153 629.6553)"><tspan x="0" y="0" class="st2 st3 st4">Jund Saga </tspan><tspan x="86" y="0" class="st5 st3 st4">(6.7%)</tspan></text>
<text transform="matrix(1 0 0 1 189.8658 603.7748)"><tspan x="0" y="0" class="st2 st3 st4">Blue Living End </tspan><tspan x="122.9" y="0" class="st5 st3 st4">(4.5%)</tspan></text>
<text transform="matrix(1 0 0 1 168.4492 570.2591)"><tspan x="0" y="0" class="st2 st3 st4">Elementals </tspan><tspan x="88.8" y="0" class="st5 st3 st4">(4.2%)</tspan></text>
<text transform="matrix(1 0 0 1 142.4719 530.0272)"><tspan x="0" y="0" class="st2 st3 st4">Yawgmoth </tspan><tspan x="85" y="0" class="st5 st3 st4">(3.4%)</tspan></text>
<text transform="matrix(1 0 0 1 70.8354 453.2084)"><tspan x="0" y="0" class="st2 st3 st4">Jeskai Control </tspan><tspan x="112.4" y="0" class="st5 st3 st4">(3.1%)</tspan></text>
<text transform="matrix(1 0 0 1 161.7163 381.5496)"><tspan x="0" y="0" class="st2 st3 st4">Mill </tspan><tspan x="30.2" y="0" class="st5 st3 st4">(2%)</tspan></text>
</svg>
