<?xml version="1.0" encoding="utf-8"?>
<!-- Generator: Adobe Illustrator 25.4.1, SVG Export Plug-In . SVG Version: 6.00 Build 0)  -->
<svg version="1.1" id="Layer_1" xmlns="http://www.w3.org/2000/svg" xmlns:xlink="http://www.w3.org/1999/xlink" x="0px" y="0px"
	 viewBox="0 0 794.6 556.9" style="enable-background:new 0 0 794.6 556.9;" xml:space="preserve">
<style type="text/css">
	.st0{fill:url(#SVGID_1_);stroke:#2E5E82;stroke-width:6;stroke-miterlimit:10;}
	.st1{fill:#004D94;stroke:#004D94;stroke-width:0.75;stroke-miterlimit:10;}
	.st2{font-family:'ArialMT';}
	.st3{font-size:11.04px;}
	.st4{clip-path:url(#SVGID_00000057846137340124091030000014312956024759100032_);}
	.st5{enable-background:new    ;}
	.st6{font-size:17px;}
	.st7{fill:#AAACAE;stroke:#AAACAE;stroke-width:0.75;stroke-miterlimit:10;}
	.st8{fill:none;}
	.st9{letter-spacing:1;}
	.st10{fill:none;stroke:#2E5E82;stroke-width:3;stroke-miterlimit:10;}
	.st11{fill:url(#SVGID_00000144330400901423381420000007579762779970699199_);}
</style>
<radialGradient id="SVGID_1_" cx="390.0616" cy="269.7596" r="210.545" gradientUnits="userSpaceOnUse">
	<stop  offset="0" style="stop-color:#FFFFFF"/>
	<stop  offset="0.9804" style="stop-color:#2D5E80"/>
</radialGradient>
<circle class="st0" cx="390.1" cy="269.8" r="210.5"/>
<g>
	<defs>
		<polyline id="SVGID_00000131365650632876652750000000233289448017812642_" points="120.1,-122.1 840.1,-122.1 840.1,597.9 
			120.1,597.9 		"/>
	</defs>
	<clipPath id="SVGID_00000130633823939690874390000014260654694875590067_">
		<use xlink:href="#SVGID_00000131365650632876652750000000233289448017812642_"  style="overflow:visible;"/>
	</clipPath>
</g>
<g>
	<defs>
		<polyline id="SVGID_00000085942838775146528140000009876721096836807579_" points="120.1,-122.1 840.1,-122.1 840.1,597.9 
			120.1,597.9 		"/>
	</defs>
	<clipPath id="SVGID_00000037666800467478494890000000434480875998466216_">
		<use xlink:href="#SVGID_00000085942838775146528140000009876721096836807579_"  style="overflow:visible;"/>
	</clipPath>
</g>
<g>
	<g>
		<text transform="matrix(1 0 0 1 472.4333 231.4325)" class="st1 st2 st3">10.6%</text>
		<text transform="matrix(1 0 0 1 483.8033 287.7725)" class="st1 st2 st3">6.8%</text>
		<text transform="matrix(1 0 0 1 470.3733 327.3725)" class="st1 st2 st3">5.9%</text>
		<text transform="matrix(1 0 0 1 449.2633 353.1825)" class="st1 st2 st3">4.2%</text>
		<text transform="matrix(1 0 0 1 427.1533 368.2725)" class="st1 st2 st3">3.9%</text>
		<text transform="matrix(1 0 0 1 404.5333 376.7125)" class="st1 st2 st3">3.4%</text>
		<text transform="matrix(1 0 0 1 382.2433 379.7425)" class="st1 st2 st3">3.4%</text>
		<text transform="matrix(1 0 0 1 365.7269 378.2125)" class="st1 st2 st3">3%</text>
		<text transform="matrix(1 0 0 1 343.5233 373.5425)" class="st1 st2 st3">2.5%</text>
		<text transform="matrix(1 0 0 1 329.3133 367.2025)" class="st1 st2 st3">2.2%</text>
	</g>
</g>
<g>
	<defs>
		<polyline id="SVGID_00000165949386543156968980000006394158975143083687_" points="110.8,-110.2 830.8,-110.2 830.8,609.8 
			110.8,609.8 		"/>
	</defs>
	<clipPath id="SVGID_00000004537547574287692730000001171234303556604564_">
		<use xlink:href="#SVGID_00000165949386543156968980000006394158975143083687_"  style="overflow:visible;"/>
	</clipPath>
	<g style="clip-path:url(#SVGID_00000004537547574287692730000001171234303556604564_);">
		<text transform="matrix(1 0 0 1 426.9761 54.577)" class="st5"><tspan x="0" y="0" class="st1 st2 st6">Hammer Time </tspan><tspan x="112.4" y="0" class="st7 st2 st6">(13%)</tspan></text>
		<rect x="588.1" y="159.1" class="st8" width="172.8" height="22.9"/>
		<text transform="matrix(1 0 0 1 588.1095 173.7146)" class="st5"><tspan x="0" y="0" class="st1 st2 st6">Izzet</tspan><tspan x="35.9" y="0" class="st1 st2 st6 st9"> </tspan><tspan x="42" y="0" class="st1 st2 st6">Murktide</tspan><tspan x="107.2" y="0" class="st1 st2 st6 st9"> </tspan><tspan x="113.3" y="0" class="st7 st2 st6">(10.6%)</tspan></text>
		<text transform="matrix(1 0 0 1 608.3315 296.5415)" class="st5"><tspan x="0" y="0" class="st1 st2 st6">Temur Footfalls </tspan><tspan x="122.8" y="0" class="st7 st2 st6">(6.8%)</tspan></text>
		<polyline class="st8" points="706.3,373.8 706.3,393.9 588.1,393.9 588.1,373.8 		"/>
		<text transform="matrix(1 0 0 1 223.6277 507.8959)" class="st5"><tspan x="0" y="0" class="st1 st2 st6">Green Tron </tspan><tspan x="91.6" y="0" class="st7 st2 st6">(3%)</tspan></text>
	</g>
</g>
<g>
	<defs>
		<polygon id="SVGID_00000008855586288890357160000004472381857574531970_" points="389.8,270.9 397.1,270.2 404.3,269.6 411.6,269 
			418.8,268.3 426.1,267.7 433.3,267.1 440.5,266.5 447.8,265.8 455,265.2 462.3,264.6 469.5,263.9 476.8,263.3 484,262.7 
			491.2,262.1 498.5,261.4 505.7,260.8 513,260.2 520.2,259.6 527.4,258.9 534.7,258.3 541.9,257.7 549.2,257 556.4,256.4 
			563.7,255.8 570.9,255.2 578.1,254.5 585.4,253.9 592.6,253.3 599.9,252.6 599.1,245.3 598.1,238 596.8,230.7 595.2,223.4 
			593.5,216.3 591.4,209.2 589.1,202.1 586.6,195.2 583.8,188.3 580.8,181.6 577.6,174.9 574.1,168.4 570.4,162 566.4,155.7 
			562.3,149.6 557.9,143.6 553.4,137.8 548.6,132.2 543.6,126.7 538.3,131.6 533,136.6 527.7,141.6 522.4,146.6 517.1,151.5 
			511.8,156.5 506.5,161.5 501.2,166.4 495.9,171.4 490.6,176.4 485.3,181.4 480,186.3 474.7,191.3 469.4,196.3 464.1,201.3 
			458.8,206.2 453.5,211.2 448.2,216.2 442.9,221.1 437.6,226.1 432.3,231.1 427,236.1 421.7,241 416.4,246 411.1,251 405.8,255.9 
			400.5,260.9 395.2,265.9 389.8,270.9 		"/>
	</defs>
	<clipPath id="SVGID_00000072241775047161922890000017198857929234952089_">
		<use xlink:href="#SVGID_00000008855586288890357160000004472381857574531970_"  style="overflow:visible;"/>
	</clipPath>
	<g style="clip-path:url(#SVGID_00000072241775047161922890000017198857929234952089_);">
		
			<image style="overflow:visible;" width="844" height="844" xlink:href="../../../../../../../MKM/Tiers_list_pics/Izzet_Murktide.JPG"  transform="matrix(0.2548 0 0 0.2548 386.8347 126.6765)">
		</image>
	</g>
</g>
<g>
	<defs>
		<polygon id="SVGID_00000017475160003210982320000012273193070047456655_" points="389.5,270.4 396.3,272.8 403.2,275.2 410,277.7 
			416.9,280.1 423.7,282.5 430.6,285 437.4,287.4 444.3,289.8 451.1,292.3 458,294.7 464.8,297.1 471.7,299.6 478.5,302 
			485.4,304.4 492.2,306.9 499.1,309.3 505.9,311.7 512.8,314.2 519.6,316.6 526.5,319 533.3,321.5 540.2,323.9 547,326.3 
			553.9,328.8 560.7,331.2 567.6,333.6 574.4,336.1 581.3,338.5 588.1,340.9 590.5,333.8 592.6,326.6 594.5,319.3 596.1,312 
			597.5,304.6 598.6,297.2 599.4,289.7 599.9,282.2 600.2,274.7 600.2,267.2 600,259.7 599.5,252.2 592.2,252.8 585,253.4 
			577.8,254.1 570.5,254.7 563.3,255.3 556,255.9 548.8,256.6 541.5,257.2 534.3,257.8 527.1,258.5 519.8,259.1 512.6,259.7 
			505.3,260.3 498.1,261 490.9,261.6 483.6,262.2 476.4,262.8 469.1,263.5 461.9,264.1 454.6,264.7 447.4,265.4 440.2,266 
			432.9,266.6 425.7,267.2 418.4,267.9 411.2,268.5 404,269.1 396.7,269.8 389.5,270.4 		"/>
	</defs>
	<clipPath id="SVGID_00000132068127995514178610000010131296385538593976_">
		<use xlink:href="#SVGID_00000017475160003210982320000012273193070047456655_"  style="overflow:visible;"/>
	</clipPath>
	<g style="clip-path:url(#SVGID_00000132068127995514178610000010131296385538593976_);">
		
			<image style="overflow:visible;" width="720" height="722" xlink:href="../../../../../../../MKM/Tiers_list_pics/Temur_Footfalls.JPG"  transform="matrix(0.299 0 0 0.299 384.9321 170.3389)">
		</image>
	</g>
</g>
<g>
	<defs>
		<polygon id="SVGID_00000108992362381141941760000008479179615321188993_" points="389.5,269.9 395,274.7 400.5,279.4 406,284.2 
			411.5,288.9 417,293.7 422.5,298.4 428,303.2 433.5,307.9 439,312.7 444.5,317.4 450,322.2 455.5,326.9 461,331.7 466.5,336.4 
			472,341.2 477.5,345.9 483,350.7 488.5,355.4 494,360.2 499.5,364.9 505,369.7 510.5,374.4 516,379.2 521.5,383.9 527,388.7 
			532.5,393.4 538,398.2 543.5,402.9 549,407.7 554,401.7 558.8,395.5 563.3,389.1 567.6,382.6 571.7,375.9 575.5,369 579,362.1 
			582.3,355 585.4,347.8 588.1,340.4 581.3,338 574.4,335.6 567.6,333.1 560.7,330.7 553.9,328.3 547,325.8 540.2,323.4 533.3,321 
			526.5,318.5 519.6,316.1 512.8,313.7 505.9,311.3 499.1,308.8 492.2,306.4 485.4,304 478.5,301.5 471.7,299.1 464.8,296.7 
			458,294.2 451.1,291.8 444.3,289.4 437.4,286.9 430.6,284.5 423.7,282.1 416.9,279.6 410,277.2 403.2,274.8 396.3,272.3 
			389.5,269.9 		"/>
	</defs>
	<clipPath id="SVGID_00000134955041052582340070000003031718147130814650_">
		<use xlink:href="#SVGID_00000108992362381141941760000008479179615321188993_"  style="overflow:visible;"/>
	</clipPath>
	<g style="clip-path:url(#SVGID_00000134955041052582340070000003031718147130814650_);">
		
			<image style="overflow:visible;" width="580" height="580" xlink:href="../../../../../../../MKM/Tiers_list_pics/Already_uploaded/Living_End.JPG"  transform="matrix(0.4405 0 0 0.4405 403.8041 200.1819)">
		</image>
	</g>
</g>
<g>
	<defs>
		<polygon id="SVGID_00000092442678864357627500000004448326860540432036_" points="390.1,269.8 394.1,275.9 398.2,281.9 
			402.3,287.9 406.4,293.9 410.4,300 414.5,306 418.6,312 422.6,318 426.7,324 430.8,330.1 434.8,336.1 438.9,342.1 443,348.1 
			447.1,354.2 451.1,360.2 455.2,366.2 459.3,372.2 463.3,378.2 467.4,384.3 471.5,390.3 475.5,396.3 479.6,402.3 483.7,408.4 
			487.8,414.4 491.8,420.4 495.9,426.4 500,432.4 504,438.5 508.1,444.5 514.6,439.9 520.9,435.1 527.1,430 533,424.8 538.8,419.2 
			544.3,413.5 549.6,407.6 544.1,402.9 538.6,398.1 533.1,393.4 527.6,388.6 522.1,383.9 516.6,379.1 511.1,374.4 505.6,369.6 
			500.1,364.9 494.6,360.1 489.1,355.4 483.6,350.6 478.1,345.9 472.6,341.1 467.1,336.4 461.6,331.6 456.1,326.9 450.6,322.1 
			445.1,317.3 439.6,312.6 434.1,307.8 428.6,303.1 423.1,298.3 417.6,293.6 412.1,288.8 406.6,284.1 401.1,279.3 395.6,274.6 
			390.1,269.8 		"/>
	</defs>
	<clipPath id="SVGID_00000031905140617103901170000014068616420458933172_">
		<use xlink:href="#SVGID_00000092442678864357627500000004448326860540432036_"  style="overflow:visible;"/>
	</clipPath>
	
		<g transform="matrix(1 0 0 1 0 1.525879e-05)" style="clip-path:url(#SVGID_00000031905140617103901170000014068616420458933172_);">
		
			<image style="overflow:visible;" width="686" height="691" xlink:href="../../../../../../../MKM/Tiers_list_pics/Already_uploaded/Burn.JPG"  transform="matrix(0.358 0 0 0.358 390.0616 237.7829)">
		</image>
	</g>
</g>
<g>
	<defs>
		<polygon id="SVGID_00000051385815543709407920000011307516263923760573_" points="390.4,269.2 392.9,276.1 395.4,282.9 
			397.8,289.7 400.3,296.6 402.8,303.4 405.3,310.2 407.8,317 410.3,323.9 412.8,330.7 415.2,337.5 417.7,344.4 420.2,351.2 
			422.7,358 425.2,364.9 427.7,371.7 430.2,378.5 432.6,385.4 435.1,392.2 437.6,399 440.1,405.8 442.6,412.7 445.1,419.5 
			447.6,426.3 450,433.2 452.5,440 455,446.8 457.5,453.7 460,460.5 462.5,467.3 469.4,464.7 476.2,461.8 482.9,458.7 489.4,455.3 
			495.9,451.7 502.2,447.9 508.4,443.9 504.4,437.9 500.3,431.8 496.2,425.8 492.1,419.8 488.1,413.8 484,407.7 479.9,401.7 
			475.9,395.7 471.8,389.7 467.7,383.7 463.6,377.6 459.6,371.6 455.5,365.6 451.4,359.6 447.4,353.5 443.3,347.5 439.2,341.5 
			435.2,335.5 431.1,329.5 427,323.4 422.9,317.4 418.9,311.4 414.8,305.4 410.7,299.3 406.7,293.3 402.6,287.3 398.5,281.3 
			394.5,275.3 390.4,269.2 		"/>
	</defs>
	<clipPath id="SVGID_00000034051193047301168950000017529165269203946416_">
		<use xlink:href="#SVGID_00000051385815543709407920000011307516263923760573_"  style="overflow:visible;"/>
	</clipPath>
	<g style="clip-path:url(#SVGID_00000034051193047301168950000017529165269203946416_);">
		
			<image style="overflow:visible;" width="722" height="726" xlink:href="../../../../../../../MKM/Tiers_list_pics/Elementals.JPG"  transform="matrix(0.3263 0 0 0.3263 349.5738 274.3563)">
		</image>
	</g>
</g>
<g>
	<defs>
		<polygon id="SVGID_00000036235250286072708580000000044657649562121644_" points="391.6,269.4 392.5,276.6 393.5,283.8 394.5,291 
			395.5,298.2 396.5,305.4 397.4,312.6 398.4,319.8 399.4,327 400.4,334.2 401.4,341.4 402.3,348.6 403.3,355.8 404.3,363 
			405.3,370.2 406.3,377.4 407.2,384.6 408.2,391.8 409.2,399 410.2,406.2 411.2,413.4 412.1,420.6 413.1,427.8 414.1,435 
			415.1,442.3 416.1,449.5 417,456.7 418,463.9 419,471.1 420,478.3 427.4,477.1 434.8,475.7 442.1,474 449.4,472.1 456.6,469.9 
			463.7,467.5 461.2,460.6 458.7,453.8 456.2,447 453.7,440.2 451.2,433.3 448.7,426.5 446.3,419.7 443.8,412.8 441.3,406 
			438.8,399.2 436.3,392.3 433.8,385.5 431.3,378.7 428.9,371.8 426.4,365 423.9,358.2 421.4,351.4 418.9,344.5 416.4,337.7 
			413.9,330.9 411.5,324 409,317.2 406.5,310.4 404,303.5 401.5,296.7 399,289.9 396.5,283.1 394.1,276.2 391.6,269.4 		"/>
	</defs>
	<clipPath id="SVGID_00000129163364859451682460000013427428342239391894_">
		<use xlink:href="#SVGID_00000036235250286072708580000000044657649562121644_"  style="overflow:visible;"/>
	</clipPath>
	<g style="clip-path:url(#SVGID_00000129163364859451682460000013427428342239391894_);">
		
			<image style="overflow:visible;" width="646" height="652" xlink:href="../../../../../../../MKM/Tiers_list_pics/Jund_Saga.JPG"  transform="matrix(0.3603 0 0 0.3603 272.1949 278.6486)">
		</image>
	</g>
</g>
<g>
	<defs>
		<polygon id="SVGID_00000133514912043478930410000005072201492803160982_" points="391.2,269.4 390.6,276.7 390.1,283.9 
			389.5,291.2 388.9,298.4 388.4,305.7 387.8,312.9 387.2,320.2 386.7,327.4 386.1,334.6 385.5,341.9 384.9,349.1 384.4,356.4 
			383.8,363.6 383.2,370.9 382.7,378.1 382.1,385.4 381.5,392.6 380.9,399.9 380.4,407.1 379.8,414.4 379.2,421.6 378.7,428.9 
			378.1,436.1 377.5,443.3 376.9,450.6 376.4,457.8 375.8,465.1 375.2,472.3 374.7,479.6 382.2,480 389.7,480.2 397.2,480.1 
			404.7,479.8 412.2,479.2 419.6,478.3 418.7,471.1 417.7,463.9 416.7,456.7 415.7,449.5 414.7,442.3 413.8,435.1 412.8,427.9 
			411.8,420.7 410.8,413.5 409.8,406.3 408.9,399.1 407.9,391.9 406.9,384.7 405.9,377.5 404.9,370.3 404,363.1 403,355.9 
			402,348.7 401,341.5 400,334.3 399.1,327.1 398.1,319.8 397.1,312.6 396.1,305.4 395.1,298.2 394.2,291 393.2,283.8 392.2,276.6 
			391.2,269.4 		"/>
	</defs>
	<clipPath id="SVGID_00000169520274051223239120000007866213206481854596_">
		<use xlink:href="#SVGID_00000133514912043478930410000005072201492803160982_"  style="overflow:visible;"/>
	</clipPath>
	<g style="clip-path:url(#SVGID_00000169520274051223239120000007866213206481854596_);">
		
			<image style="overflow:visible;" width="719" height="720" xlink:href="../../../../../../../MKM/Tiers_list_pics/Creativity_Combo.JPG"  transform="matrix(0.3697 0 0 0.3697 270.1183 275.4346)">
		</image>
	</g>
</g>
<g>
	<defs>
		<polygon id="SVGID_00000033368155232448925730000003147921031120962473_" points="391.6,269.8 389.6,276.8 387.7,283.8 
			385.8,290.8 383.9,297.8 382,304.8 380.1,311.8 378.1,318.8 376.2,325.8 374.3,332.8 372.4,339.9 370.5,346.9 368.5,353.9 
			366.6,360.9 364.7,367.9 362.8,374.9 360.9,381.9 358.9,388.9 357,395.9 355.1,403 353.2,410 351.3,417 349.3,424 347.4,431 
			345.5,438 343.6,445 341.7,452 339.7,459 337.8,466.1 335.9,473.1 343.6,475 351.4,476.7 359.2,478.1 367.1,479.1 375,479.9 
			375.6,472.7 376.2,465.4 376.7,458.2 377.3,450.9 377.9,443.7 378.4,436.4 379,429.2 379.6,421.9 380.2,414.7 380.7,407.4 
			381.3,400.2 381.9,392.9 382.4,385.7 383,378.4 383.6,371.2 384.1,364 384.7,356.7 385.3,349.5 385.9,342.2 386.4,335 387,327.7 
			387.6,320.5 388.1,313.2 388.7,306 389.3,298.7 389.9,291.5 390.4,284.2 391,277 391.6,269.8 		"/>
	</defs>
	<clipPath id="SVGID_00000023972165495485474370000016220857152874516645_">
		<use xlink:href="#SVGID_00000033368155232448925730000003147921031120962473_"  style="overflow:visible;"/>
	</clipPath>
	<g style="clip-path:url(#SVGID_00000023972165495485474370000016220857152874516645_);">
		
			<image style="overflow:visible;" width="704" height="703" xlink:href="../../../../../../../MKM/Tiers_list_pics/Already_uploaded/Green_Tron.JPG"  transform="matrix(0.345 0 0 0.345 258.591 271.7596)">
		</image>
	</g>
</g>
<g>
	<defs>
		<polygon id="SVGID_00000125596058740911090440000012794766952085905081_" points="391.8,270.1 388.8,276.7 385.9,283.3 
			382.9,289.9 379.9,296.5 376.9,303.2 373.9,309.8 370.9,316.4 367.9,323 364.9,329.7 361.9,336.3 358.9,342.9 355.9,349.5 
			352.9,356.2 349.9,362.8 346.9,369.4 343.9,376 340.9,382.7 337.9,389.3 335,395.9 332,402.5 329,409.1 326,415.8 323,422.4 
			320,429 317,435.6 314,442.3 311,448.9 308,455.5 305,462.1 312.6,465.4 320.4,468.4 328.2,471 336.2,473.4 338.1,466.4 
			340,459.3 341.9,452.3 343.8,445.3 345.8,438.3 347.7,431.3 349.6,424.3 351.5,417.3 353.4,410.3 355.4,403.3 357.3,396.2 
			359.2,389.2 361.1,382.2 363,375.2 365,368.2 366.9,361.2 368.8,354.2 370.7,347.2 372.6,340.2 374.6,333.1 376.5,326.1 
			378.4,319.1 380.3,312.1 382.2,305.1 384.2,298.1 386.1,291.1 388,284.1 389.9,277.1 391.8,270.1 		"/>
	</defs>
	<clipPath id="SVGID_00000134951731265020705390000015414801998722292156_">
		<use xlink:href="#SVGID_00000125596058740911090440000012794766952085905081_"  style="overflow:visible;"/>
	</clipPath>
	<g style="clip-path:url(#SVGID_00000134951731265020705390000015414801998722292156_);">
		
			<image style="overflow:visible;" width="699" height="706" xlink:href="../../../../../../../MKM/Tiers_list_pics/Grixis_Monkey.JPG"  transform="matrix(0.3633 0 0 0.3633 300.02 273.0504)">
		</image>
	</g>
</g>
<g>
	<defs>
		<polygon id="SVGID_00000072255732476994661010000003303613799032212141_" points="392.1,269.5 388.3,275.6 384.4,281.8 
			380.5,287.9 376.6,294.1 372.8,300.2 368.9,306.3 365,312.5 361.1,318.6 357.2,324.8 353.4,330.9 349.5,337.1 345.6,343.2 
			341.7,349.4 337.8,355.5 334,361.7 330.1,367.8 326.2,374 322.3,380.1 318.4,386.3 314.6,392.4 310.7,398.6 306.8,404.7 
			302.9,410.9 299.1,417 295.2,423.1 291.3,429.3 287.4,435.4 283.5,441.6 279.7,447.7 285.9,451.5 292.3,455.1 298.7,458.4 
			305.3,461.5 308.3,454.9 311.3,448.3 314.3,441.7 317.3,435.1 320.3,428.4 323.3,421.8 326.3,415.2 329.3,408.6 332.3,401.9 
			335.3,395.3 338.3,388.7 341.3,382.1 344.2,375.4 347.2,368.8 350.2,362.2 353.2,355.6 356.2,348.9 359.2,342.3 362.2,335.7 
			365.2,329.1 368.2,322.5 371.2,315.8 374.2,309.2 377.2,302.6 380.2,296 383.2,289.3 386.2,282.7 389.2,276.1 392.1,269.5 		"/>
	</defs>
	<clipPath id="SVGID_00000104703124352893044300000015510974598392699277_">
		<use xlink:href="#SVGID_00000072255732476994661010000003303613799032212141_"  style="overflow:visible;"/>
	</clipPath>
	
		<g transform="matrix(1 0 0 1 1.525879e-05 0)" style="clip-path:url(#SVGID_00000104703124352893044300000015510974598392699277_);">
		
			<image style="overflow:visible;" width="706" height="708" xlink:href="../../../../../../../MKM/Tiers_list_pics/Jeskai_Control.JPG"  transform="matrix(0.3152 0 0 0.3152 252.7873 274.5279)">
		</image>
	</g>
</g>
<g>
	<defs>
		<polygon id="SVGID_00000133513417700683384450000005777508087114668451_" points="392.1,268.9 387.5,274.5 382.8,280 378.2,285.6 
			373.5,291.2 368.9,296.8 364.2,302.4 359.6,308 354.9,313.5 350.3,319.1 345.6,324.7 340.9,330.3 336.3,335.9 331.6,341.5 
			327,347 322.3,352.6 317.7,358.2 313,363.8 308.4,369.4 303.7,375 299.1,380.5 294.4,386.1 289.7,391.7 285.1,397.3 280.4,402.9 
			275.8,408.5 271.1,414 266.5,419.6 261.8,425.2 257.2,430.8 264.4,436.6 271.9,442 279.7,447.2 283.5,441 287.4,434.9 
			291.3,428.7 295.2,422.6 299.1,416.4 302.9,410.3 306.8,404.1 310.7,398 314.6,391.8 318.4,385.7 322.3,379.5 326.2,373.4 
			330.1,367.2 334,361.1 337.8,354.9 341.7,348.8 345.6,342.6 349.5,336.5 353.4,330.4 357.2,324.2 361.1,318.1 365,311.9 
			368.9,305.8 372.8,299.6 376.6,293.5 380.5,287.3 384.4,281.2 388.3,275 392.1,268.9 		"/>
	</defs>
	<clipPath id="SVGID_00000065054476428111773970000013905244449799177648_">
		<use xlink:href="#SVGID_00000133513417700683384450000005777508087114668451_"  style="overflow:visible;"/>
	</clipPath>
	<g style="clip-path:url(#SVGID_00000065054476428111773970000013905244449799177648_);">
		
			<image style="overflow:visible;" width="645" height="647" xlink:href="../../../../../../../MKM/Tiers_list_pics/Already_uploaded/Mill.JPG"  transform="matrix(0.3066 0 0 0.3066 256.4177 267.8011)">
		</image>
	</g>
</g>
<line class="st10" x1="599.5" y1="252.2" x2="390.4" y2="269.4"/>
<line class="st10" x1="588.1" y1="340.9" x2="389.6" y2="270.4"/>
<line class="st10" x1="549.6" y1="407.6" x2="390.8" y2="271.4"/>
<line class="st10" x1="508.1" y1="444.5" x2="390.3" y2="272.3"/>
<line class="st10" x1="463.7" y1="467.5" x2="390.3" y2="272.3"/>
<line class="st10" x1="419.6" y1="478.3" x2="390.8" y2="271.4"/>
<line class="st10" x1="374.7" y1="479.6" x2="390.8" y2="271.4"/>
<line class="st10" x1="335.9" y1="473.1" x2="390.8" y2="271.4"/>
<line class="st10" x1="305" y1="462.1" x2="390.8" y2="271.4"/>
<line class="st10" x1="279.7" y1="447.7" x2="390.8" y2="271.4"/>
<line class="st10" x1="256.4" y1="432.5" x2="390" y2="269.2"/>
<g>
	<defs>
		<polygon id="SVGID_00000114779203249833319590000012772740822473442996_" points="389.8,270.8 395.2,265.8 400.5,260.9 
			405.8,255.9 411.1,250.9 416.4,246 421.7,241 427,236 432.3,231 437.6,226.1 442.9,221.1 448.2,216.1 453.5,211.2 458.8,206.2 
			464.1,201.2 469.4,196.2 474.7,191.3 480,186.3 485.3,181.3 490.6,176.4 495.9,171.4 501.2,166.4 506.5,161.4 511.8,156.5 
			517.1,151.5 522.4,146.5 527.7,141.6 533,136.6 538.3,131.6 543.6,126.6 538.6,121.5 533.5,116.5 528.1,111.7 522.6,107.1 
			517,102.7 511.2,98.4 505.2,94.4 499.1,90.6 492.9,86.9 486.6,83.5 480.2,80.4 473.6,77.4 467,74.6 460.3,72.1 453.5,69.8 
			446.6,67.8 439.6,66 432.6,64.4 425.6,63.1 418.5,62 411.4,61.1 404.2,60.5 397,60.1 389.8,60 389.8,67.3 389.8,74.6 389.8,81.8 
			389.8,89.1 389.8,96.4 389.8,103.6 389.8,110.9 389.8,118.2 389.8,125.4 389.8,132.7 389.8,140 389.8,147.2 389.8,154.5 
			389.8,161.8 389.8,169 389.8,176.3 389.8,183.6 389.8,190.9 389.8,198.1 389.8,205.4 389.8,212.7 389.8,219.9 389.8,227.2 
			389.8,234.5 389.8,241.7 389.8,249 389.8,256.3 389.8,263.5 389.8,270.8 		"/>
	</defs>
	<clipPath id="SVGID_00000171694615172664000640000001483473307333450392_">
		<use xlink:href="#SVGID_00000114779203249833319590000012772740822473442996_"  style="overflow:visible;"/>
	</clipPath>
	<g transform="matrix(1 0 0 1 0 0)" style="clip-path:url(#SVGID_00000171694615172664000640000001483473307333450392_);">
		
			<image style="overflow:visible;" width="700" height="698" xlink:href="../../../../../../../MKM/Tiers_list_pics/Already_uploaded/hammer_time.JPG"  transform="matrix(0.3303 0 0 0.3303 360.5279 60.0107)">
		</image>
	</g>
</g>
<line class="st10" x1="543.6" y1="125.7" x2="389.8" y2="269.9"/>
<line class="st10" x1="390" y1="59.8" x2="390.3" y2="272.3"/>
<radialGradient id="SVGID_00000021807506340859637950000005980759502528738181_" cx="392.8766" cy="392.5078" r="29.475" gradientTransform="matrix(1 0 0 1 0 -122)" gradientUnits="userSpaceOnUse">
	<stop  offset="0" style="stop-color:#FFFFFF"/>
	<stop  offset="0.127" style="stop-color:#FBFCFC"/>
	<stop  offset="0.2652" style="stop-color:#EDF2F5"/>
	<stop  offset="0.4086" style="stop-color:#D8E1E8"/>
	<stop  offset="0.5558" style="stop-color:#B9C9D5"/>
	<stop  offset="0.7058" style="stop-color:#92ABBE"/>
	<stop  offset="0.8559" style="stop-color:#6387A2"/>
	<stop  offset="1" style="stop-color:#2E5E82"/>
</radialGradient>
<circle style="fill:url(#SVGID_00000021807506340859637950000005980759502528738181_);" cx="392.9" cy="270.5" r="29.5"/>
<text transform="matrix(1 0 0 1 28.0967 237.9229)" class="st5"><tspan x="0" y="0" class="st1 st2 st6">Other </tspan><tspan x="47.2" y="0" class="st7 st2 st6">(each &lt;2%)</tspan></text>
<text transform="matrix(1 0 0 1 578.7291 387.4541)"><tspan x="0" y="0" class="st1 st2 st6">Blue Living End </tspan><tspan x="122.9" y="0" class="st7 st2 st6">(5.9%)</tspan></text>
<polyline class="st8" points="549.6,447.2 549.6,427 585.5,427 585.5,447.2 "/>
<text transform="matrix(1 0 0 1 540.5054 439.6895)"><tspan x="0" y="0" class="st1 st2 st6">Burn </tspan><tspan x="40.6" y="0" class="st7 st2 st6">(4.2%)</tspan></text>
<text transform="matrix(1 0 0 1 498.6925 473.0693)"><tspan x="0" y="0" class="st1 st2 st6">Elementals </tspan><tspan x="88.8" y="0" class="st7 st2 st6">(3.9%)</tspan></text>
<text transform="matrix(1 0 0 1 443.2581 495.5198)"><tspan x="0" y="0" class="st1 st2 st6">Jund Saga </tspan><tspan x="86" y="0" class="st7 st2 st6">(3.4%)</tspan></text>
<text transform="matrix(1 0 0 1 314.1385 526.949)"><tspan x="0" y="0" class="st1 st2 st6">Creativity Combo </tspan><tspan x="135.1" y="0" class="st7 st2 st6">(3.4%)</tspan></text>
<text transform="matrix(1 0 0 1 146.4624 491.9493)"><tspan x="0" y="0" class="st1 st2 st6">Grixis Monkey </tspan><tspan x="112.4" y="0" class="st7 st2 st6">(2.5%)</tspan></text>
<text transform="matrix(1 0 0 1 114.3 473.0692)"><tspan x="0" y="0" class="st1 st2 st6">Jeskai Control </tspan><tspan x="112.4" y="0" class="st7 st2 st6">(2.2%)</tspan></text>
<text transform="matrix(1 0 0 1 165.4658 452.0654)"><tspan x="0" y="0" class="st1 st2 st6">Mill </tspan><tspan x="30.2" y="0" class="st7 st2 st6">(2.1%)</tspan></text>
</svg>
